<svg width="138" height="25" viewBox="0 0 138 25" fill="none" xmlns="http://www.w3.org/2000/svg">
<path d="M27.6055 0.523438L22.739 19.9835L41.6484 24.9917L46.5149 5.53165L27.6055 0.523438ZM90.363 2.70263V22.7967H109.889V2.70263H90.363ZM112.222 2.70263L119.849 12.6281L112.222 22.7967H121.605L124.592 18.8049L127.685 22.7967H137.146L129.284 12.5745L136.675 2.70263H127.292L124.54 6.3981L121.657 2.70263H112.222ZM0.667969 2.70308V22.7972H9.31706V15.3531C11.6496 15.3531 12.7503 17.4565 13.1171 22.7972H22.0804C21.6873 18.9402 20.4031 15.623 18.3066 13.1685C19.748 12.1435 20.5344 10.5787 20.5344 8.7178C20.5344 5.72373 18.3591 2.70308 13.4318 2.70308H0.667969ZM48.5309 2.70308V22.7972H62.1594C66.7199 22.7972 68.8429 20.3429 68.8429 17.2409C68.8429 15.5147 68.2403 13.9774 65.7766 12.629C67.7423 11.4691 68.3186 9.95831 68.3186 8.31294C68.3186 5.99338 67.0607 2.70308 60.7443 2.70308H48.5309ZM71.4925 2.70308V22.7972H87.7155V17.7538H80.1412V2.70308H71.4925ZM57.18 6.74892H57.7043C59.4602 6.74892 59.9846 7.58464 59.9846 8.69078C59.9846 10.12 59.2767 10.6597 57.3896 10.6597H57.18V6.74892ZM9.31706 6.82953H9.8413C11.4661 6.82953 11.8853 7.96261 11.8853 8.82588C11.8853 10.1205 11.1254 10.7137 9.55292 10.7137H9.31706V6.82953ZM33.2558 10.3687L36.9469 11.346L35.9969 15.145L32.3057 14.1673L33.2558 10.3687ZM98.2191 10.788H102.031V14.71H98.2191V10.788ZM57.18 14.0313H57.7826C59.5911 14.0313 60.1938 14.975 60.1938 16.297C60.1938 17.8074 59.4337 18.374 57.4417 18.374H57.18V14.0313Z" fill="white"/>
</svg>
