<svg width="150" height="18" viewBox="0 0 150 18" fill="none" xmlns="http://www.w3.org/2000/svg">
<path d="M43.4052 5.7341V13.2417H45.31C45.7961 13.2346 46.2758 13.1318 46.7208 12.9393C47.1657 12.7468 47.5669 12.4686 47.9005 12.121C48.5853 11.4086 48.9599 10.4616 48.9447 9.48169C48.9592 8.99497 48.8757 8.51024 48.699 8.05533C48.5223 7.60041 48.2559 7.1843 47.9151 6.83088C47.5801 6.48288 47.1761 6.20596 46.7281 6.01717C46.2801 5.82838 45.7975 5.73172 45.31 5.73314H43.4062L43.4052 5.7341ZM45.31 3.38016C48.8602 3.38016 51.5459 6.08346 51.5459 9.48169C51.5459 12.8799 48.8602 15.5985 45.31 15.5985H41.109C41.069 15.598 41.0294 15.5898 40.9926 15.5742C40.9558 15.5587 40.9225 15.5362 40.8945 15.508C40.8665 15.4798 40.8445 15.4465 40.8296 15.4099C40.8148 15.3734 40.8074 15.3343 40.8079 15.2949V3.69611C40.8079 3.52811 40.9429 3.39161 41.109 3.39161L45.31 3.38016V3.38016ZM60.6967 13.5032C62.3091 13.508 63.7651 12.5334 64.3858 11.0338C64.6899 10.3011 64.7711 9.49748 64.6197 8.72031C64.4684 7.94314 64.0909 7.22581 63.533 6.65524C62.9849 6.09405 62.2764 5.70948 61.5012 5.55234C60.726 5.39521 59.9205 5.47289 59.1912 5.77514C57.7012 6.3937 56.7279 7.85703 56.725 9.48169C56.725 11.6963 58.5006 13.4927 60.6977 13.5032M60.6977 3.10333C64.4344 3.10333 67.291 5.99755 67.291 9.48169C67.291 12.9658 64.4344 15.86 60.6967 15.86C56.96 15.86 54.1277 12.9801 54.1277 9.48169C54.1277 5.98324 56.9843 3.10333 60.6967 3.10333M76.3681 13.5032C78.5662 13.4975 80.3447 11.6991 80.3427 9.48455C80.3398 7.26807 78.5574 5.4735 76.3603 5.47255C74.1612 5.47255 72.3779 7.26616 72.3749 9.48169C72.3749 10.5489 72.7955 11.5722 73.5444 12.3263C73.911 12.6979 74.3496 12.9935 74.8345 13.1957C75.3193 13.3979 75.8404 13.5024 76.3671 13.5032M76.3671 3.10333C80.0921 3.10333 82.9488 5.98324 82.9488 9.48169C82.9488 12.9801 80.0804 15.86 76.3671 15.86C72.6547 15.86 69.7737 12.9801 69.7737 9.48169C69.7737 5.98324 72.6304 3.10333 76.3671 3.10333ZM91.6615 5.7341H88.9758V8.96527H91.6615C91.8737 8.97452 92.0856 8.94092 92.2841 8.86655C92.4825 8.79217 92.6634 8.67861 92.8155 8.53286C93.1263 8.23695 93.3031 7.82649 93.307 7.39503C93.3148 7.17613 93.2775 6.95794 93.1974 6.75356C93.1173 6.54917 92.996 6.36281 92.8407 6.20565C92.6883 6.05098 92.5047 5.92938 92.3016 5.84866C92.0985 5.76794 91.8805 5.72989 91.6615 5.73696V5.7341ZM86.3775 3.69611C86.3775 3.52811 86.5135 3.39161 86.6796 3.39161H91.7363C94.1471 3.39161 95.8916 5.17186 95.8916 7.40744C95.9101 8.91946 95.0699 10.3083 93.7285 10.9851L96.0607 15.1403C96.0929 15.1881 96.1111 15.2437 96.1131 15.301C96.1152 15.3583 96.1011 15.415 96.0723 15.4649C96.0442 15.514 96.0024 15.5541 95.9518 15.5805C95.9011 15.6069 95.8438 15.6184 95.7867 15.6138H93.7402C93.6834 15.6146 93.6276 15.5996 93.5791 15.5705C93.5306 15.5415 93.4915 15.4995 93.4662 15.4496L91.2186 11.3374H88.9661V15.2854C88.9668 15.3248 88.9595 15.364 88.9447 15.4007C88.9299 15.4374 88.9079 15.4708 88.8799 15.4991C88.8519 15.5274 88.8185 15.55 88.7817 15.5655C88.7448 15.5811 88.7051 15.5894 88.665 15.5899H86.6932C86.6531 15.5894 86.6134 15.5811 86.5766 15.5655C86.5397 15.55 86.5063 15.5274 86.4783 15.4991C86.4504 15.4708 86.4283 15.4374 86.4135 15.4007C86.3987 15.364 86.3915 15.3248 86.3921 15.2854L86.3785 3.69707L86.3775 3.69611ZM102.664 5.79137V13.2999H104.567C105.053 13.2934 105.533 13.1913 105.978 12.9994C106.423 12.8076 106.825 12.53 107.159 12.1831C107.844 11.4715 108.219 10.5252 108.205 9.54565C108.221 9.05833 108.138 8.57281 107.962 8.11705C107.786 7.66128 107.519 7.24428 107.178 6.89007C106.843 6.54148 106.438 6.26421 105.989 6.0754C105.54 5.88659 105.057 5.79025 104.568 5.79232L102.664 5.79137V5.79137ZM104.567 3.43457C108.118 3.43457 110.803 6.14074 110.803 9.54565C110.803 12.9506 108.118 15.6567 104.567 15.6567H100.379C100.339 15.6562 100.299 15.6479 100.262 15.6324C100.226 15.6168 100.192 15.5942 100.164 15.5659C100.136 15.5376 100.114 15.5042 100.099 15.4675C100.085 15.4308 100.077 15.3917 100.078 15.3522V3.75434C100.078 3.58539 100.213 3.44888 100.379 3.44888L104.568 3.43457H104.567ZM118.726 6.42042L117.252 10.4353H120.196L118.726 6.42042V6.42042ZM116.388 12.7043L115.423 15.377C115.404 15.4399 115.364 15.4947 115.309 15.5327C115.255 15.5707 115.189 15.5899 115.122 15.587H113.03C112.976 15.5919 112.923 15.5826 112.874 15.5601C112.826 15.5376 112.785 15.5027 112.755 15.4591C112.724 15.415 112.706 15.3639 112.701 15.3107C112.697 15.2576 112.706 15.2041 112.729 15.1556L117.249 3.5682C117.27 3.5071 117.311 3.45444 117.365 3.41825C117.42 3.38206 117.485 3.36433 117.55 3.36775H119.891C119.957 3.36411 120.022 3.38175 120.076 3.41795C120.131 3.45416 120.172 3.50693 120.193 3.5682L124.714 15.1556C124.736 15.2042 124.745 15.2577 124.741 15.3109C124.736 15.364 124.717 15.4151 124.687 15.4591C124.656 15.5026 124.615 15.5372 124.567 15.5596C124.518 15.5819 124.465 15.5911 124.412 15.5861H122.32C122.254 15.5889 122.188 15.5698 122.133 15.5318C122.079 15.4937 122.039 15.439 122.019 15.3761L121.055 12.7033H116.388V12.7043ZM127.139 6.68102C127.139 4.76236 128.785 3.10333 131.383 3.10333C132.782 3.07263 134.137 3.587 135.152 4.53422C135.182 4.56294 135.207 4.59757 135.224 4.63598C135.241 4.67438 135.249 4.71576 135.249 4.75758C135.249 4.7994 135.241 4.84078 135.224 4.87919C135.207 4.9176 135.182 4.95222 135.152 4.98095L133.993 6.14074C133.965 6.16891 133.932 6.19132 133.895 6.20662C133.858 6.22192 133.819 6.22981 133.779 6.22981C133.739 6.22981 133.7 6.22192 133.663 6.20662C133.626 6.19132 133.593 6.16891 133.565 6.14074C133.02 5.63799 132.303 5.35314 131.555 5.34177C130.515 5.34177 129.747 5.94983 129.747 6.65143C129.747 8.91946 135.889 7.61076 135.889 11.975C135.886 14.1867 134.228 15.86 131.296 15.86C130.482 15.8682 129.675 15.7154 128.922 15.4108C128.169 15.1061 127.487 14.6557 126.915 14.0865C126.884 14.0578 126.859 14.0231 126.842 13.9847C126.825 13.9463 126.817 13.9049 126.817 13.8631C126.817 13.8213 126.825 13.7799 126.842 13.7415C126.859 13.7031 126.884 13.6685 126.915 13.6397L128.036 12.5095C128.064 12.48 128.097 12.4564 128.135 12.4403C128.173 12.4242 128.213 12.4159 128.254 12.4159C128.295 12.4159 128.336 12.4242 128.373 12.4403C128.411 12.4564 128.445 12.48 128.473 12.5095C129.178 13.1968 130.128 13.587 131.122 13.5977C132.42 13.5977 133.276 12.899 133.276 12.0237C133.276 9.75469 127.137 11.0643 127.137 6.69915M147.026 3.68084V8.26654H141.827V3.68084C141.828 3.64148 141.821 3.6024 141.806 3.56585C141.791 3.52929 141.769 3.49596 141.741 3.46777C141.713 3.43959 141.68 3.41709 141.643 3.40156C141.606 3.38604 141.566 3.37779 141.526 3.37729H139.555C139.514 3.37779 139.475 3.38604 139.438 3.40156C139.401 3.41709 139.368 3.43959 139.34 3.46777C139.312 3.49596 139.29 3.52929 139.275 3.56585C139.26 3.6024 139.253 3.64148 139.253 3.68084V15.2663C139.253 15.4343 139.389 15.5708 139.555 15.5708H141.526C141.691 15.5708 141.827 15.4343 141.827 15.2663V10.6081H147.022V15.2663C147.022 15.4343 147.158 15.5708 147.323 15.5708H149.295C149.461 15.5708 149.596 15.4343 149.596 15.2663V3.68084C149.597 3.64148 149.589 3.6024 149.574 3.56585C149.559 3.52929 149.537 3.49596 149.51 3.46777C149.482 3.43959 149.448 3.41709 149.411 3.40156C149.375 3.38604 149.335 3.37779 149.295 3.37729H147.323C147.243 3.37929 147.167 3.41228 147.111 3.4691C147.056 3.52592 147.025 3.602 147.026 3.68084V3.68084ZM29.7397 4.92368C28.3721 2.43228 25.6961 0.881123 22.786 0.890669H0.76805C0.619357 0.891262 0.474129 0.934841 0.350461 1.01598C0.226793 1.09711 0.130153 1.21222 0.072583 1.34695C0.0158543 1.48081 0.00107968 1.62828 0.0301514 1.77045C0.0592231 1.91262 0.130818 2.04302 0.235765 2.14496L5.03216 6.82229C5.45565 7.23657 6.03262 7.46853 6.6329 7.46853H22.1546C23.261 7.45707 24.1653 8.31808 24.1769 9.39005C24.1886 10.462 23.3018 11.3402 22.1954 11.3507H11.4944C11.3456 11.3508 11.2001 11.3939 11.076 11.4747C10.952 11.5555 10.855 11.6704 10.797 11.8051C10.7397 11.9391 10.7245 12.0869 10.7534 12.2295C10.7823 12.372 10.854 12.5028 10.9592 12.605L15.7585 17.2862C16.1846 17.7002 16.7599 17.9321 17.3592 17.9314H22.1993C28.4964 17.9314 33.2578 11.4023 29.7397 4.92081" fill="white"/>
</svg>
