<svg width="117" height="35" viewBox="0 0 117 35" fill="none" xmlns="http://www.w3.org/2000/svg">
<path d="M20.6507 8.68647L23.1136 4.3962C23.8287 3.16473 23.3917 1.53602 22.1602 0.820971C20.9287 0.105925 19.3 0.542898 18.585 1.77436L16.1221 6.06464C10.8784 4.3962 4.9594 6.54134 2.09921 11.5467C0.271875 14.7246 0.033527 18.3396 1.14582 21.5573L5.71417 13.6521C6.74701 11.8247 8.45517 10.5535 10.4811 9.99739C12.5071 9.44124 14.6125 9.71932 16.4398 10.7919C20.174 12.937 21.4849 17.7834 19.3 21.5176C17.1549 25.2517 12.3482 26.5626 8.57435 24.3777L11.1962 19.8094C12.4276 20.5244 14.0564 20.0875 14.7714 18.856C15.4865 17.5848 15.0495 15.9958 13.818 15.2808C12.5865 14.5657 10.9578 15.0027 10.2428 16.2342L1.90059 30.694C1.18554 31.9652 1.62252 33.5542 2.85398 34.2692C4.08545 34.9843 5.71417 34.5473 6.42921 33.3158L8.89215 29.0255C14.1358 30.694 20.0548 28.5488 22.915 23.5435C25.8149 18.5779 24.7026 12.4206 20.6507 8.68647Z" fill="white"/>
<path d="M31.7363 11.7852H35.7883C38.132 11.7852 40.0785 12.9372 40.0785 15.6385C40.0785 18.3397 38.132 19.5315 35.7883 19.5315H34.1198V23.3053H31.7363V11.7852V11.7852ZM35.7088 17.4261C36.8608 17.4261 37.6156 16.9096 37.6156 15.6385C37.6156 14.3673 36.8211 13.8508 35.7088 13.8508H34.0801V17.4261H35.7088Z" fill="white"/>
<path d="M43.5332 11.7852H51.1604V13.8906H45.9167V16.5521H50.5248V18.5781H45.9167V21.2396H51.3987V23.3053H43.5332V11.7852Z" fill="white"/>
<path d="M55.375 11.7852H57.7585V21.2396H62.9624V23.3053H55.375V11.7852Z" fill="white"/>
<path d="M65.6211 17.544C65.6211 14.1277 68.2827 11.625 71.5798 11.625C74.9167 11.625 77.5385 14.1277 77.5385 17.544C77.5385 20.9603 74.9167 23.463 71.5798 23.463C68.2827 23.463 65.6211 20.9603 65.6211 17.544ZM75.1153 17.544C75.1153 15.3989 73.6852 13.7304 71.5798 13.7304C69.4744 13.7304 68.0443 15.3591 68.0443 17.544C68.0443 19.6891 69.4744 21.3576 71.5798 21.3576C73.6852 21.3576 75.1153 19.6891 75.1153 17.544Z" fill="white"/>
<path d="M83.3811 13.8476H80.084V11.7422H89.0618V13.8476H85.7646V23.3021H83.3811V13.8476Z" fill="white"/>
<path d="M91.6055 17.544C91.6055 14.1277 94.267 11.625 97.5642 11.625C100.901 11.625 103.523 14.1277 103.523 17.544C103.523 20.9603 100.861 23.463 97.5642 23.463C94.2273 23.463 91.6055 20.9603 91.6055 17.544ZM101.06 17.544C101.06 15.3989 99.6299 13.7304 97.5245 13.7304C95.419 13.7304 93.989 15.3591 93.989 17.544C93.989 19.6891 95.419 21.3576 97.5245 21.3576C99.6696 21.3576 101.06 19.6891 101.06 17.544Z" fill="white"/>
<path d="M110.748 17.9406C110.192 17.3844 109.358 16.3516 109.358 16.3516C109.358 16.3516 109.517 17.6228 109.517 18.457V23.3034H107.332V11.6641H107.57L113.37 17.1461C113.926 17.6625 114.721 18.7351 114.721 18.7351C114.721 18.7351 114.562 17.4241 114.562 16.6297V11.7832H116.787V23.4226H116.548L110.748 17.9406Z" fill="white"/>
</svg>
