<svg width="152" height="26" viewBox="0 0 152 26" fill="none" xmlns="http://www.w3.org/2000/svg">
<path d="M151.645 9.5567H149.165L148.855 6.79391C148.828 6.55249 148.625 6.3701 148.384 6.3701L145.622 6.36936C145.43 6.36936 145.275 6.52549 145.275 6.71825V9.5567L145.3 12.5249V17.6475C145.3 18.2978 145.372 18.8875 145.517 19.4159C145.662 19.9444 145.9 20.3997 146.23 20.7816C146.56 21.1644 146.999 21.4571 147.546 21.6598C148.093 21.863 148.77 21.9648 149.576 21.9648C149.994 21.9648 150.413 21.9282 150.832 21.8554C151.131 21.8033 151.393 21.7449 151.618 21.6803C151.769 21.6372 151.869 21.4965 151.867 21.3392L151.83 19.1373C151.827 18.9184 151.627 18.7619 151.413 18.8034C151.37 18.8117 151.325 18.8194 151.279 18.8262C151.061 18.859 150.856 18.875 150.663 18.875C150.099 18.875 149.709 18.7328 149.491 18.4476C149.274 18.1626 149.165 17.7354 149.165 17.1655V12.5249H151.645C151.836 12.5249 151.992 12.3688 151.992 12.1762V9.90544C151.992 9.71287 151.836 9.5567 151.645 9.5567" fill="white"/>
<path d="M44.0638 10.667C43.7174 10.2048 43.2626 9.82767 42.6988 9.53566C42.1509 9.25224 41.4893 9.10758 40.7142 9.09935L40.7166 9.09783C40.7043 9.09783 40.6925 9.09855 40.6802 9.09863C40.6684 9.09855 40.6572 9.09783 40.6453 9.09783C40.6025 9.09783 40.5606 9.10094 40.5182 9.10216C39.6237 9.12399 38.8588 9.29148 38.2269 9.60872C37.6496 9.89863 37.1835 10.2124 36.8258 10.5492L36.5926 9.77695C36.5318 9.5759 36.3475 9.43855 36.1389 9.43855L33.5027 9.4384C33.3113 9.4384 33.1562 9.59455 33.1562 9.78719V21.2059C33.1562 21.3985 33.3113 21.5547 33.5027 21.5547H36.7961C36.9873 21.5547 37.1425 21.3985 37.1425 21.2057V14.9855C37.1425 14.6449 37.1866 14.3164 37.2753 14.0002C37.3636 13.684 37.4966 13.404 37.6741 13.1609C37.8508 12.9176 38.0725 12.727 38.3383 12.5891C38.604 12.4515 38.9141 12.3823 39.2684 12.3823C39.6226 12.3823 39.9163 12.4515 40.1501 12.5891C40.3834 12.727 40.5645 12.9138 40.6938 13.1487C40.8225 13.3841 40.9149 13.6559 40.9713 13.9636C41.0279 14.2721 41.056 14.5963 41.056 14.937V21.2059C41.056 21.3985 41.211 21.5547 41.4024 21.5547H44.6958C44.8872 21.5547 45.0422 21.3985 45.0422 21.2059V14.061C45.0422 13.4613 44.9656 12.8609 44.8126 12.2606C44.6595 11.6608 44.4098 11.1292 44.0638 10.667" fill="white"/>
<path d="M73.795 18.318C73.4404 18.1398 73.1426 17.9044 72.9013 17.6124C72.6595 17.3205 72.4784 16.984 72.3574 16.6027C72.2371 16.2219 72.1766 15.8364 72.1766 15.4471C72.1766 15.0577 72.2371 14.6769 72.3574 14.3035C72.4784 13.9307 72.6595 13.6022 72.9013 13.3182C73.1426 13.0346 73.4404 12.8035 73.795 12.6248C74.1488 12.4466 74.5599 12.3572 75.0272 12.3572C75.4781 12.3572 75.8804 12.4466 76.2351 12.6248C76.589 12.8035 76.8908 13.0384 77.141 13.3304C77.3904 13.6224 77.5836 13.955 77.7208 14.3279C77.8575 14.7012 77.9262 15.0822 77.9262 15.4715C77.9262 15.8608 77.8575 16.2419 77.7208 16.615C77.5836 16.9883 77.3904 17.3205 77.141 17.6124C76.8908 17.9044 76.589 18.1398 76.2351 18.318C75.8804 18.4967 75.4781 18.5857 75.0272 18.5857C74.5599 18.5857 74.1488 18.4967 73.795 18.318V18.318ZM81.3726 4.69975H78.1033C77.9121 4.69975 77.757 4.85588 77.757 5.04846V10.7272H77.7087C77.3704 10.3219 76.8952 9.94871 76.2834 9.60799C75.6712 9.26743 74.9223 9.09711 74.0368 9.09711C73.1672 9.09711 72.382 9.26743 71.6811 9.60799C70.9807 9.94871 70.3845 10.4108 69.8935 10.9948C69.4019 11.5786 69.0239 12.2561 68.7581 13.0262C68.4924 13.7968 68.3594 14.6039 68.3594 15.4471C68.3594 16.2907 68.4883 17.1016 68.746 17.8801C69.0035 18.6586 69.3779 19.344 69.8694 19.936C70.3606 20.5281 70.9603 21.0027 71.6691 21.3593C72.3778 21.7158 73.1828 21.8945 74.0849 21.8945C74.1938 21.8945 74.3016 21.891 74.4089 21.8848C75.3497 21.8643 76.1535 21.6899 76.8166 21.3569C77.3876 21.07 77.8536 20.7605 78.2183 20.4296L78.4741 21.2237C78.5375 21.4206 78.7195 21.554 78.9251 21.554H81.3726C81.5638 21.554 81.7188 21.3978 81.7188 21.2052V5.04846C81.7188 4.85588 81.5638 4.69975 81.3726 4.69975" fill="white"/>
<path d="M103.062 9.4384H99.7053C99.5495 9.4384 99.413 9.5431 99.3715 9.69435L97.3398 17.1023H97.2917L95.1419 9.68935C95.0987 9.54064 94.9634 9.4384 94.8094 9.4384H91.345C91.19 9.4384 91.0539 9.54208 91.0118 9.69231L88.9329 17.1023H88.8606L86.8524 9.69529C86.8114 9.54368 86.6746 9.4384 86.5183 9.4384H82.9931C82.7552 9.4384 82.588 9.67456 82.6657 9.90102L86.5816 21.3197C86.6298 21.4603 86.7613 21.5547 86.909 21.5547H90.3928C90.5447 21.5547 90.6788 21.455 90.7238 21.309L92.9675 14.0124H93.016L95.3067 21.311C95.3522 21.4561 95.4859 21.5547 95.6369 21.5547H99.123C99.2705 21.5547 99.4016 21.4607 99.4501 21.3203L103.389 9.90159C103.467 9.67498 103.3 9.4384 103.062 9.4384" fill="white"/>
<path d="M123.01 4.70048H119.669C119.477 4.70048 119.322 4.85661 119.322 5.04918V21.2059C119.322 21.3985 119.477 21.5547 119.669 21.5547H123.01C123.202 21.5547 123.357 21.3985 123.357 21.2059V5.04918C123.357 4.85661 123.202 4.70048 123.01 4.70048" fill="white"/>
<path d="M129.626 4.70048H126.284C126.093 4.70048 125.938 4.85661 125.938 5.04918V21.2059C125.938 21.3985 126.093 21.5547 126.284 21.5547H129.626C129.817 21.5547 129.972 21.3985 129.972 21.2059V5.04918C129.972 4.85661 129.817 4.70048 129.626 4.70048" fill="white"/>
<path d="M107.958 17.6124C107.716 17.3205 107.535 16.984 107.414 16.6028C107.294 16.2219 107.233 15.8364 107.233 15.4471C107.233 15.0577 107.294 14.6769 107.414 14.3035C107.535 13.9307 107.716 13.6022 107.958 13.3183C108.199 13.0346 108.497 12.8035 108.852 12.6248C109.205 12.4466 109.616 12.3573 110.084 12.3573C110.535 12.3573 110.937 12.4466 111.292 12.6248C111.645 12.8035 111.947 13.0384 112.198 13.3304C112.447 13.6224 112.64 13.955 112.777 14.3279C112.914 14.7012 112.983 15.0822 112.983 15.4715C112.983 15.8608 112.914 16.2419 112.777 16.615C112.64 16.9883 112.447 17.3205 112.198 17.6124C111.947 17.9044 111.645 18.1398 111.292 18.318C110.937 18.4967 110.535 18.5857 110.084 18.5857C109.616 18.5857 109.205 18.4967 108.852 18.318C108.497 18.1398 108.199 17.9044 107.958 17.6124V17.6124ZM116.429 9.02347L113.668 9.02289C113.458 9.02289 113.273 9.16206 113.214 9.36498L112.891 10.4631C112.547 10.1586 112.112 9.87327 111.584 9.608C110.905 9.26743 110.076 9.09711 109.094 9.09711H109.093C108.224 9.09711 107.438 9.26743 106.738 9.608C106.037 9.94871 105.441 10.4108 104.95 10.9948C104.459 11.5786 104.081 12.2561 103.815 13.0262C103.549 13.7968 103.416 14.6039 103.416 15.4471C103.416 16.2907 103.545 17.1016 103.802 17.8801C104.06 18.6586 104.434 19.344 104.926 19.936C105.417 20.5281 106.017 21.0027 106.726 21.3593C107.434 21.7158 108.239 21.8945 109.142 21.8945C109.349 21.8945 109.554 21.883 109.756 21.8608C110.493 21.7991 111.137 21.632 111.685 21.3569C112.334 21.0309 112.849 20.6758 113.231 20.2926L113.531 21.2235C113.594 21.4203 113.776 21.5535 113.982 21.5535L116.429 21.554C116.62 21.554 116.776 21.3978 116.776 21.2052V9.37221C116.776 9.17964 116.62 9.02347 116.429 9.02347" fill="white"/>
<path d="M67.9348 9.13193L67.9058 9.12623L67.9508 9.09783C67.8507 9.09783 67.7534 9.10079 67.6566 9.10433C67.5767 9.10007 67.4959 9.09783 67.4139 9.09783C66.8923 9.09783 66.4156 9.19712 65.982 9.39135C65.7996 9.45394 65.6256 9.52612 65.461 9.60872C64.8222 9.92969 64.3195 10.2799 63.9497 10.6583L63.7069 9.79977C63.6488 9.59462 63.4628 9.45314 63.251 9.45314L60.6335 9.45277C60.4423 9.45277 60.2871 9.60894 60.2871 9.80151V21.2059C60.2871 21.3985 60.4423 21.5547 60.6335 21.5547H63.9029C64.0941 21.5547 64.2491 21.3985 64.2491 21.2059V15.343C64.2491 15.1004 64.2978 14.8175 64.3942 14.4941C64.4908 14.1706 64.6479 13.8713 64.8654 13.5962C65.0827 13.3212 65.3727 13.0867 65.7349 12.8924C66.0973 12.6986 66.544 12.6013 67.0756 12.6013C67.2365 12.6013 67.402 12.6096 67.571 12.6256L67.7302 12.6456C67.9205 12.6644 68.0901 12.5242 68.1086 12.3325L68.2414 9.51665C68.2622 9.32524 68.125 9.15296 67.9348 9.13193" fill="white"/>
<path d="M50.1579 14.1111C50.1739 13.8031 50.2549 13.507 50.3996 13.223C50.5447 12.9396 50.7379 12.692 50.9797 12.4809C51.2214 12.2705 51.5028 12.1039 51.825 11.9823C52.1473 11.8607 52.5015 11.7998 52.8879 11.7998C53.677 11.7998 54.2688 12.0272 54.6634 12.4809C55.0581 12.9353 55.2556 13.4786 55.2556 14.1111H50.1579ZM57.2123 10.8022C56.6806 10.2348 56.0443 9.80106 55.3039 9.50067C54.5627 9.20071 53.7494 9.05063 52.8639 9.05063C51.946 9.05063 51.0921 9.20491 50.303 9.5128C49.5137 9.82107 48.8295 10.2549 48.2494 10.8144C47.6697 11.374 47.2107 12.0553 46.8727 12.8581C46.5342 13.661 46.3652 14.5575 46.3652 15.5466C46.3652 16.5685 46.5383 17.4771 46.8847 18.2715C47.2311 19.0665 47.7063 19.7354 48.31 20.2787C48.9138 20.8224 49.618 21.2358 50.4238 21.5196C51.2291 21.8032 52.0827 21.9453 52.9847 21.9453C54.2086 21.9453 55.2835 21.7222 56.2094 21.2762C56.7759 21.0033 57.2746 20.6594 57.7053 20.2439C57.8694 20.0859 57.8714 19.8218 57.7112 19.66L55.9998 17.9279C55.8434 17.7695 55.5851 17.7626 55.4304 17.923C55.203 18.1591 54.9356 18.3604 54.6274 18.5269C54.1922 18.7623 53.661 18.8797 53.0332 18.8797C52.6785 18.8797 52.3362 18.823 52.0063 18.7094C51.6762 18.5962 51.3783 18.438 51.1125 18.235C50.8467 18.0323 50.629 17.7932 50.4602 17.5173C50.2912 17.2417 50.1902 16.9334 50.1579 16.5928H58.8794C58.895 16.4468 58.9031 16.2929 58.9031 16.1304C58.9031 15.9685 58.9031 15.8063 58.9031 15.644C58.9031 14.6061 58.7541 13.6816 58.4564 12.8704C58.1579 12.0594 57.7439 11.3702 57.2123 10.8022" fill="white"/>
<path d="M135.267 14.1111C135.283 13.8031 135.364 13.507 135.509 13.223C135.654 12.9396 135.847 12.692 136.089 12.4809C136.331 12.2705 136.612 12.1039 136.934 11.9823C137.257 11.8607 137.611 11.7998 137.997 11.7998C138.786 11.7998 139.378 12.0272 139.773 12.4809C140.167 12.9353 140.365 13.4786 140.365 14.1111H135.267ZM142.322 10.8022C141.79 10.2348 141.153 9.80106 140.413 9.50067C139.672 9.20071 138.859 9.05063 137.973 9.05063C137.055 9.05063 136.201 9.20491 135.412 9.5128C134.623 9.82107 133.939 10.2549 133.359 10.8144C132.779 11.374 132.32 12.0553 131.982 12.8581C131.643 13.661 131.475 14.5575 131.475 15.5466C131.475 16.5685 131.648 17.4771 131.994 18.2715C132.34 19.0665 132.816 19.7354 133.419 20.2787C134.023 20.8224 134.727 21.2358 135.533 21.5196C136.338 21.8032 137.192 21.9453 138.094 21.9453C139.318 21.9453 140.393 21.7222 141.319 21.2762C141.885 21.0033 142.384 20.6594 142.815 20.2439C142.979 20.0859 142.981 19.8218 142.821 19.66L141.109 17.9279C140.953 17.7695 140.694 17.7626 140.54 17.923C140.312 18.1591 140.045 18.3604 139.737 18.5269C139.302 18.7623 138.77 18.8797 138.142 18.8797C137.788 18.8797 137.446 18.823 137.115 18.7094C136.785 18.5962 136.488 18.438 136.222 18.235C135.956 18.0323 135.738 17.7932 135.569 17.5173C135.4 17.2417 135.3 16.9334 135.267 16.5928H143.989C144.004 16.4468 144.012 16.2929 144.012 16.1304C144.012 15.9685 144.012 15.8063 144.012 15.644C144.012 14.6061 143.864 13.6816 143.566 12.8704C143.267 12.0594 142.853 11.3702 142.322 10.8022" fill="white"/>
<path d="M8.25674 0.95034C8.1725 0.918707 8.08281 0.901132 7.99112 0.901132H0.619769C0.320641 0.901132 0.078125 1.14532 0.078125 1.44667V9.1875L8.25674 0.95034Z" fill="#D1CDD1"/>
<path d="M0.236328 25.6019C0.33434 25.7007 0.469805 25.7617 0.619332 25.7617H7.7636C8.06279 25.7617 8.30531 25.5173 8.30531 25.2162V17.4757L0.236328 25.6019Z" fill="#D1CDD1"/>
<path d="M16.5312 9.18786V25.6906C16.5473 25.698 16.5636 25.7047 16.5802 25.7109L24.7588 17.4741L16.5312 9.18786Z" fill="#535353"/>
<path d="M8.30574 17.4754V0.973417C8.28952 0.965833 8.27345 0.958248 8.25674 0.951958L0.078125 9.18906V25.2159C0.078125 25.3666 0.138754 25.503 0.236765 25.6016L8.30574 17.4754Z" fill="white"/>
<path d="M24.7588 17.4766V1.44951C24.7588 1.14816 24.5163 0.903978 24.2171 0.903978H17.0729C16.774 0.903978 16.5318 1.1478 16.5312 1.44877V9.19034L24.7588 17.4766" fill="white"/>
<path d="M24.7606 17.4756L16.582 25.7125C16.6662 25.7443 16.7559 25.7617 16.8477 25.7617H24.2189C24.5181 25.7617 24.7606 25.5173 24.7606 25.2162V17.4756Z" fill="white"/>
<path d="M8.30475 17.4764H8.30273V17.4766L8.30475 17.4764Z" fill="white"/>
<path d="M8.52515 1.13027C8.46037 1.06515 8.38453 1.01428 8.30273 0.976911V17.4789L16.3078 25.5409C16.3726 25.6061 16.4484 25.6578 16.5303 25.6953V9.19261L8.52515 1.13027Z" fill="#D1CDD1"/>
</svg>
