<svg width="123" height="28" viewBox="0 0 123 28" fill="none" xmlns="http://www.w3.org/2000/svg">
<path d="M49.175 16.0219L47.0548 10.2778C46.9683 10.0428 46.6377 10.0428 46.551 10.2778L44.4312 16.0222C44.4161 16.0631 44.4111 16.107 44.4166 16.1502C44.4221 16.1934 44.4378 16.2346 44.4626 16.2703C44.4874 16.3061 44.5203 16.3352 44.5587 16.3554C44.5972 16.3756 44.6398 16.3861 44.6832 16.3861H48.923C48.9663 16.3861 49.009 16.3755 49.0474 16.3553C49.0858 16.3352 49.1188 16.3059 49.1435 16.2702C49.1682 16.2344 49.184 16.1932 49.1895 16.15C49.1949 16.1068 49.1899 16.0629 49.1748 16.0221M50.1544 19.2506H43.4519C43.3971 19.2506 43.3436 19.2674 43.2986 19.2989C43.2535 19.3304 43.2192 19.375 43.2001 19.4266L41.8806 23.0008C41.8615 23.0524 41.8271 23.097 41.7821 23.1285C41.7371 23.16 41.6836 23.1768 41.6287 23.1768H38.7237C38.6798 23.1768 38.6365 23.166 38.5977 23.1453C38.559 23.1246 38.5258 23.0947 38.5012 23.0581C38.4766 23.0215 38.4613 22.9795 38.4566 22.9356C38.4519 22.8917 38.458 22.8473 38.4744 22.8064L45.1627 6.06039C45.1827 6.01037 45.2171 5.96752 45.2616 5.93736C45.3061 5.9072 45.3585 5.89111 45.4122 5.89117H48.1938C48.3034 5.89117 48.4021 5.95813 48.4431 6.06039L55.1312 22.8062C55.1477 22.8472 55.1538 22.8916 55.1492 22.9355C55.1445 22.9794 55.1292 23.0216 55.1046 23.0582C55.08 23.0948 55.0468 23.1248 55.008 23.1455C54.9692 23.1662 54.9259 23.177 54.8819 23.177H51.9774C51.9225 23.177 51.869 23.1601 51.824 23.1286C51.779 23.0971 51.7446 23.0525 51.7256 23.0008L50.4059 19.4266C50.3868 19.375 50.3524 19.3304 50.3074 19.2989C50.2624 19.2674 50.2089 19.2506 50.154 19.2506M56.4923 11.7681H58.977C59.0483 11.7681 59.1166 11.7966 59.167 11.8472C59.2174 11.8979 59.2457 11.9666 59.2457 12.0382V22.9068C59.2457 22.9784 59.2174 23.0471 59.167 23.0977C59.1166 23.1484 59.0483 23.1768 58.977 23.1768H56.4923C56.4211 23.1768 56.3527 23.1484 56.3023 23.0977C56.252 23.0471 56.2237 22.9784 56.2237 22.9068V12.038C56.2237 11.9664 56.252 11.8977 56.3023 11.8471C56.3527 11.7964 56.4211 11.768 56.4923 11.768M68.3074 14.4119C68.3074 14.4836 68.2791 14.5522 68.2287 14.6029C68.1783 14.6535 68.11 14.682 68.0387 14.682H67.9635C66.735 14.682 65.8338 14.9783 65.2607 15.5709C64.6871 16.1636 64.4009 17.1432 64.4009 18.5096V22.9068C64.4009 22.9784 64.3726 23.0471 64.3222 23.0977C64.2718 23.1484 64.2035 23.1768 64.1323 23.1768H61.6719C61.6007 23.1768 61.5323 23.1484 61.482 23.0977C61.4316 23.0471 61.4033 22.9784 61.4033 22.9068V12.038C61.4033 11.9664 61.4316 11.8977 61.482 11.8471C61.5323 11.7964 61.6007 11.768 61.6719 11.768H64.1075C64.1788 11.768 64.2471 11.7964 64.2975 11.8471C64.3479 11.8977 64.3762 11.9664 64.3762 12.038V14.1878H64.4255C64.7203 13.2989 65.1871 12.6161 65.8261 12.1383C66.4647 11.661 67.251 11.4221 68.1845 11.4221H68.3074V14.4118V14.4119ZM75.1012 14.3115C75.0299 14.3115 74.9616 14.3399 74.9112 14.3906C74.8608 14.4412 74.8325 14.5099 74.8325 14.5815V19.1022C74.8325 19.5633 74.9221 19.8925 75.1026 20.09C75.2826 20.2875 75.5939 20.3863 76.0362 20.3863H76.2835C76.3548 20.3863 76.4231 20.4148 76.4735 20.4654C76.5239 20.5161 76.5522 20.5847 76.5522 20.6564V22.9313C76.5522 23.0029 76.5239 23.0716 76.4735 23.1222C76.4231 23.1729 76.3548 23.2013 76.2835 23.2013H75.2253C74.1279 23.2013 73.2844 22.9174 72.6948 22.3495C72.105 21.7815 71.8101 20.9381 71.8101 19.8184V14.5815C71.8101 14.5099 71.7818 14.4412 71.7315 14.3906C71.6811 14.3399 71.6127 14.3115 71.5415 14.3115H69.9905C69.9193 14.3115 69.8509 14.283 69.8006 14.2324C69.7502 14.1818 69.7219 14.1131 69.7219 14.0415V12.038C69.7219 11.9664 69.7502 11.8977 69.8006 11.8471C69.8509 11.7964 69.9193 11.768 69.9905 11.768H71.5417C71.6129 11.768 71.6813 11.7395 71.7316 11.6889C71.782 11.6382 71.8103 11.5696 71.8103 11.4979V7.46959C71.8103 7.39798 71.8386 7.32929 71.889 7.27865C71.9394 7.22801 72.0077 7.19956 72.079 7.19956H74.5637C74.6349 7.19956 74.7033 7.22801 74.7536 7.27865C74.804 7.32929 74.8323 7.39798 74.8323 7.46959V11.4979C74.8323 11.5696 74.8606 11.6382 74.911 11.6889C74.9614 11.7395 75.0298 11.768 75.101 11.768H76.8977C76.969 11.768 77.0373 11.7964 77.0877 11.8471C77.1381 11.8977 77.1664 11.9664 77.1664 12.038V14.0416C77.1664 14.1133 77.1381 14.1819 77.0877 14.2326C77.0373 14.2832 76.969 14.3117 76.8977 14.3117H75.1012V14.3115ZM86.4787 19.7937C87.0438 19.2011 87.3263 18.4273 87.3263 17.4723C87.3263 16.5178 87.0438 15.7437 86.4787 15.1511C85.9136 14.5585 85.1722 14.2622 84.255 14.2622C83.3376 14.2622 82.5968 14.5585 82.0315 15.1511C81.4665 15.7437 81.1839 16.5178 81.1839 17.4723C81.1839 18.4273 81.4665 19.2011 82.0315 19.7937C82.5968 20.3863 83.3376 20.6826 84.255 20.6826C85.1722 20.6826 85.9136 20.3863 86.4787 19.7937ZM80.7417 22.831C79.9063 22.3538 79.2468 21.658 78.7639 20.7444C78.2805 19.8308 78.039 18.7402 78.039 17.4723C78.039 16.205 78.2805 15.114 78.7639 14.2004C79.2468 13.2868 79.9063 12.5916 80.7417 12.1138C81.5771 11.6364 82.4941 11.3977 83.4934 11.3977C84.3779 11.3977 85.1353 11.5705 85.7663 11.9161C86.3965 12.2618 86.9001 12.7476 87.2772 13.3732H87.3263V12.038C87.3263 11.9664 87.3546 11.8977 87.4049 11.8471C87.4553 11.7964 87.5237 11.768 87.5949 11.768H90.0551C90.1263 11.768 90.1946 11.7964 90.245 11.8471C90.2954 11.8977 90.3237 11.9664 90.3237 12.038V22.9066C90.3237 22.9782 90.2954 23.0469 90.245 23.0976C90.1946 23.1482 90.1263 23.1767 90.0551 23.1767H87.5949C87.5237 23.1767 87.4553 23.1482 87.4049 23.0976C87.3546 23.0469 87.3263 22.9782 87.3263 22.9066V21.5716H87.2772C86.9001 22.1975 86.3965 22.6829 85.7662 23.0285C85.1353 23.3741 84.378 23.547 83.4934 23.547C82.4941 23.547 81.5771 23.3083 80.7417 22.831M100.555 19.7937C101.12 19.2011 101.403 18.4273 101.403 17.4723C101.403 16.5178 101.12 15.7437 100.555 15.1511C99.9903 14.5585 99.249 14.2622 98.3317 14.2622C97.4143 14.2622 96.6733 14.5585 96.1082 15.1511C95.5433 15.7437 95.2605 16.5178 95.2605 17.4723C95.2605 18.4273 95.5433 19.2011 96.1082 19.7937C96.6733 20.3863 97.4143 20.6826 98.3317 20.6826C99.249 20.6826 99.9903 20.3863 100.555 19.7937ZM96.8207 23.0285C96.1901 22.6829 95.6862 22.1975 95.3097 21.5716H95.2605V22.9066C95.2605 22.9782 95.2322 23.0469 95.1818 23.0976C95.1314 23.1482 95.063 23.1767 94.9918 23.1767H92.5071C92.4359 23.1767 92.3675 23.1482 92.3171 23.0976C92.2668 23.0469 92.2385 22.9782 92.2385 22.9066V6.16066C92.2385 6.08904 92.2668 6.02036 92.3171 5.96972C92.3675 5.91907 92.4359 5.89062 92.5071 5.89062H94.9918C95.063 5.89062 95.1314 5.91907 95.1818 5.96972C95.2322 6.02036 95.2605 6.08904 95.2605 6.16066V13.373H95.3097C95.6862 12.7475 96.1901 12.2618 96.8207 11.9161C97.4512 11.5703 98.2089 11.3975 99.0935 11.3975C100.092 11.3975 101.01 11.6362 101.845 12.1136C102.681 12.5914 103.34 13.2866 103.823 14.2001C104.306 15.1142 104.548 16.2051 104.548 17.4725C104.548 18.7404 104.306 19.8308 103.823 20.7446C103.34 21.6582 102.681 22.354 101.845 22.831C101.01 23.3084 100.093 23.5473 99.0937 23.5473C98.209 23.5473 97.4514 23.3745 96.8209 23.0287M108.734 23.1768H106.25C106.178 23.1768 106.11 23.1484 106.06 23.0977C106.009 23.0471 105.981 22.9784 105.981 22.9068V6.1612C105.981 6.08958 106.009 6.0209 106.06 5.97026C106.11 5.91961 106.178 5.89117 106.25 5.89117H108.734C108.806 5.89117 108.874 5.91961 108.924 5.97026C108.975 6.0209 109.003 6.08958 109.003 6.1612V22.9068C109.003 22.9784 108.975 23.0471 108.924 23.0977C108.874 23.1484 108.806 23.1768 108.734 23.1768M114.595 14.4105C114.183 14.7335 113.905 15.1997 113.761 15.8096C113.722 15.9778 113.852 16.1391 114.024 16.1391H118.753C118.917 16.1391 119.046 15.9915 119.019 15.8287C118.925 15.2517 118.679 14.7918 118.281 14.4476C117.814 14.0443 117.204 13.8427 116.45 13.8427C115.697 13.8427 115.078 14.0319 114.595 14.4105M120.652 12.9905C121.618 14.0526 122.101 15.5549 122.101 17.4972V17.8198C122.101 17.8914 122.073 17.9601 122.023 18.0107C121.972 18.0613 121.904 18.0898 121.833 18.0898H113.933C113.894 18.0899 113.855 18.0986 113.819 18.1153C113.783 18.132 113.752 18.1564 113.726 18.1867C113.701 18.2169 113.683 18.2524 113.672 18.2906C113.662 18.3288 113.66 18.3687 113.667 18.4077C113.793 19.1292 114.111 19.7024 114.62 20.1271C115.201 20.6131 115.934 20.8556 116.819 20.8556C117.961 20.8556 119.018 20.4077 119.989 19.5118C120.108 19.4023 120.296 19.4255 120.389 19.5586L121.596 21.3012C121.634 21.3554 121.651 21.4217 121.643 21.4875C121.636 21.5533 121.604 21.6139 121.555 21.658C120.962 22.1796 120.303 22.6198 119.595 22.9669C118.809 23.3536 117.883 23.5473 116.819 23.5473C115.59 23.5473 114.517 23.296 113.6 22.7941C112.683 22.2922 111.97 21.5844 111.463 20.6704C110.955 19.7568 110.701 18.6992 110.701 17.4972C110.701 16.2957 110.947 15.2339 111.438 14.3117C111.929 13.39 112.617 12.6738 113.502 12.1633C114.386 11.6533 115.418 11.3978 116.598 11.3978C118.333 11.3978 119.685 11.9289 120.652 12.9905M59.5702 7.75007C59.5702 8.76863 58.7486 9.59439 57.735 9.59439C56.7212 9.59439 55.8996 8.76863 55.8996 7.74989C55.8996 6.73115 56.7214 5.90539 57.735 5.90539C58.7486 5.90539 59.5702 6.73115 59.5702 7.74989" fill="white"/>
<path d="M14.4536 1.01997L2.63924 5.9333C1.98225 6.20657 1.98905 7.14467 2.65016 7.40804L14.5138 12.1365C15.5561 12.552 16.717 12.552 17.7593 12.1365L29.6231 7.40786C30.284 7.14467 30.2912 6.20675 29.6339 5.93348L17.8199 1.01979C16.742 0.571528 15.5312 0.571528 14.4534 1.01979" fill="white"/>
<path d="M17.1875 14.719V26.5315C17.1875 27.0932 17.7512 27.478 18.2708 27.271L31.4905 22.1138C31.6379 22.055 31.7644 21.9531 31.8535 21.8212C31.9426 21.6894 31.9902 21.5336 31.9902 21.3742V9.56193C31.9902 9.00008 31.4265 8.61538 30.9069 8.8224L17.6872 13.9797C17.5398 14.0384 17.4134 14.1404 17.3243 14.2722C17.2352 14.4041 17.1875 14.5598 17.1875 14.7192" fill="white"/>
<path d="M14.1013 15.3255L10.178 17.2294L9.77965 17.4229L1.49778 21.4113C0.972979 21.6658 0.302734 21.2813 0.302734 20.6951V9.60834C0.302734 9.39627 0.410919 9.21319 0.556001 9.07547C0.615521 9.0159 0.683046 8.965 0.756609 8.92425C0.954351 8.8049 1.23663 8.77304 1.47665 8.86845L14.0354 13.8698C14.6738 14.1244 14.7239 15.0234 14.1013 15.3256" fill="white"/>
<path d="M14.102 15.3255L10.1786 17.2294L0.556641 9.07529C0.616172 9.01579 0.683696 8.96495 0.757248 8.92425C0.95499 8.8049 1.23727 8.77304 1.47729 8.86845L14.036 13.8698C14.6744 14.1244 14.7246 15.0234 14.102 15.3256" fill="#D1CDD1"/>
</svg>
