<svg width="108" height="42" viewBox="0 0 108 42" fill="none" xmlns="http://www.w3.org/2000/svg">
<path fill-rule="evenodd" clip-rule="evenodd" d="M56.5603 14.7189C55.6657 13.9665 54.1389 13.5907 51.979 13.5907H47.1074V28.6455H50.7501V23.9271H52.3819C54.3623 23.9271 55.8146 23.4913 56.7389 22.6187C57.7799 21.6411 58.3037 20.3395 58.3037 18.7145C58.3037 17.0294 57.7223 15.6972 56.5603 14.7189ZM52.2913 20.5206H50.7501V16.9972H52.1347C53.819 16.9972 54.6611 17.588 54.6611 18.7695C54.6611 19.9358 53.8706 20.5197 52.2913 20.5197M64.5371 13.5898H60.7387V28.6447H68.9398V25.2373H64.5371V13.5898ZM76.3817 13.5898L70.415 28.6447H74.5045L75.2866 26.456H80.4713L81.1864 28.6447H85.3217L79.3973 13.5898H76.3817V13.5898ZM76.3369 23.4083L77.9018 18.2625L79.4421 23.4083H76.336H76.3369Z" fill="white"/>
<mask id="mask0_320_6322" style="mask-type:alpha" maskUnits="userSpaceOnUse" x="0" y="0" width="108" height="42">
<path d="M0.492188 41.1279H107.132V0.949219H0.492188V41.1279Z" fill="white"/>
</mask>
<g mask="url(#mask0_320_6322)">
<path fill-rule="evenodd" clip-rule="evenodd" d="M87.2199 28.6434H91.0192V13.5886H87.2199V28.6434ZM105.769 16.4103C105.289 15.7145 104.673 15.1233 103.958 14.6727C102.811 13.95 101.246 13.5894 99.2651 13.5894H94.2598V28.6434H100.115C102.231 28.6434 103.928 27.9519 105.21 26.5673C106.491 25.1835 107.131 23.3469 107.131 21.0593C107.131 19.2396 106.677 17.69 105.768 16.4103M99.69 25.2352H98.0591V16.9968H99.7128C100.875 16.9968 101.768 17.3607 102.394 18.0861C103.02 18.8114 103.334 19.8405 103.334 21.1727C103.334 23.881 102.119 25.2352 99.69 25.2352M16.2656 0.949219L3.95375 4.1738L0.560742 16.555L4.80433 20.912L0.492188 25.1971L3.68545 37.6324L15.9439 41.0576L20.2569 36.7717L24.5005 41.1279L36.8123 37.9033L40.2045 25.5212L35.9617 21.1659L40.2739 16.8809L37.0806 4.44463L24.8204 1.01947L20.5091 5.30452L16.2656 0.949219ZM8.71022 6.55542L15.1958 4.85596L18.0319 7.76739L13.8958 11.8773L8.71022 6.55542ZM22.9475 7.80632L25.8293 4.94313L32.2869 6.74754L27.0167 11.9839L22.9475 7.80632ZM4.44632 15.5386L6.23296 9.01745L11.4168 14.3393L7.28158 18.4491L4.44632 15.5377V15.5386ZM29.4533 14.4865L34.7235 9.2485L36.4044 15.7992L33.5234 18.6633L29.4533 14.4865V14.4865ZM16.3333 14.3791L20.4694 10.2692L24.5378 14.4468L20.4025 18.5566L16.3333 14.3791V14.3791ZM9.71991 20.9509L13.8552 16.8411L17.9261 21.0186L13.7891 25.1285L9.71991 20.9509V20.9509ZM22.8408 21.0584L26.9761 16.9486L31.0453 21.1261L26.9092 25.236L22.8408 21.0584ZM4.35999 26.2779L7.24265 23.413L11.311 27.5914L6.04253 32.8269L4.35999 26.2779V26.2779ZM16.2266 27.6303L20.3627 23.5205L24.432 27.698L20.2967 31.8079L16.2266 27.6303ZM29.3467 27.7386L33.4828 23.6288L36.3189 26.5394L34.5331 33.0605L29.3467 27.7386V27.7386ZM8.47916 35.3304L13.7485 30.0923L17.8194 34.2699L14.9368 37.1348L8.47916 35.3295V35.3304ZM22.7342 34.3097L26.8694 30.1998L32.0542 35.5225L25.5694 37.2211L22.7342 34.3097V34.3097Z" fill="white"/>
</g>
</svg>
