<svg width="81" height="36" viewBox="0 0 81 36" fill="none" xmlns="http://www.w3.org/2000/svg">
<g clip-path="url(#clip0_320_6240)">
<path fill-rule="evenodd" clip-rule="evenodd" d="M71.6152 32.8084C70.7203 33.8299 68.9039 33.6767 68.6055 32.1829C68.463 31.4421 68.6703 30.5484 68.9947 29.9227C69.7212 28.5565 71.0315 27.433 72.5235 27.0627C72.5235 27.9054 72.5235 29.0163 72.4976 29.8717C72.4713 30.8166 72.264 32.055 71.6152 32.8084ZM57.1768 12.622C58.0072 12.673 58.6688 13.5667 58.4482 15.0862C58.1758 16.8866 56.6579 18.8144 54.9327 19.2485C54.66 18.6102 54.5305 17.3078 54.686 16.031C54.9715 13.6943 56.1909 12.5708 57.1768 12.622ZM24.8363 21.3297C23.552 19.6443 23.6038 17.6015 24.0062 15.6608C25.2643 18.4441 28.6244 18.9295 30.6999 18.5208C30.4276 20.6659 29.2856 22.5428 27.3141 22.5428C26.2114 22.5555 25.4069 22.0831 24.8363 21.3297ZM29.3767 13.4645C30.0097 14.1005 30.4367 15.0277 30.6322 16.0568C30.6334 16.0567 30.6351 16.0693 30.6351 16.0693C30.6343 16.0651 30.6331 16.061 30.6322 16.0568C29.1803 16.2605 27.7803 15.9923 26.7563 15.2137C26.017 14.6392 25.8222 13.7327 26.1336 13.1837C26.5874 12.3921 27.9498 12.0473 29.3767 13.4645ZM9.60662 2.9947C10.5015 1.96056 12.3178 2.12638 12.6032 3.62038C12.7458 4.34808 12.5512 5.24181 12.2271 5.86748C11.5003 7.23368 10.1901 8.35723 8.6982 8.74028C8.6982 7.88495 8.6852 6.78681 8.7244 5.9313C8.75022 4.98657 8.95792 3.73521 9.60662 2.9947ZM75.8315 25.1347C75.8443 20.6914 75.8315 16.2481 75.8315 11.8047C75.8315 10.7067 72.6272 10.6427 72.5235 11.7537C72.5235 12.2005 72.5235 12.6602 72.5104 13.107C72.4587 15.5458 71.2782 20.104 69.3193 21.7639C68.7874 22.2109 68.3072 22.2363 67.9702 21.9936C67.6716 21.7766 67.5937 21.2277 67.5937 20.7553V20.1424C67.5937 17.3973 67.6068 14.5627 67.5937 11.8174C67.5937 10.7193 64.3895 10.6427 64.2857 11.7537C64.2857 14.3072 64.2857 16.7844 64.2989 19.3125C62.1842 22.6322 57.2936 24.1899 55.2699 20.2572C56.5283 20.7297 57.8643 20.4998 58.7725 20.0274C60.3423 19.2102 61.5356 17.8569 61.7691 15.7119C61.9896 9.42977 53.5577 8.57445 51.6764 14.9713C51.3652 16.031 51.1966 17.1674 51.2356 18.2782C51.2742 19.3379 51.4949 20.321 51.8711 21.1894C51.1833 21.8532 50.3922 22.3129 49.601 22.2875C48.5629 22.2491 48.667 20.9851 48.667 20.2572V15.4691C48.667 14.8947 48.667 14.3201 48.6149 13.7584C48.4465 12.0857 47.149 10.7578 45.333 10.6427C42.7512 10.6045 40.9352 12.9666 40.0401 15.5586C40.0273 14.1158 40.0401 13.2602 40.0401 11.8047C40.0273 10.7193 37.0566 10.6427 36.7192 11.7919C36.2911 13.2475 34.8899 14.3839 33.5797 15.0605C33.1777 14.103 32.6719 13.2221 31.9713 12.4688C29.0912 9.39156 24.9272 9.95343 22.4881 12.4942C20.5552 14.5117 19.9718 18.1505 21.0094 20.704C20.2441 21.598 19.1934 22.3257 18.2593 22.2875C17.7921 22.2619 17.5327 21.9936 17.4159 21.5724C17.2991 21.1637 17.3252 20.6787 17.3252 20.2572C17.3252 18.6612 17.3121 17.0652 17.3252 15.4691C17.3252 14.8947 17.3252 14.3201 17.2735 13.7584C17.1046 12.0857 16.1057 10.7449 14.2119 10.6301C10.9557 10.4895 9.64543 13.5923 8.6852 16.1459V10.6939C9.37291 10.5789 10.0346 10.4129 10.696 10.2215C17.87 8.1914 16.4818 0.773004 11.1374 0.645384C7.53085 0.568773 5.39025 2.90529 5.41645 6.45477V8.75308C4.11905 8.56165 3.146 6.90183 2.60133 5.82928C2.5233 5.66326 2.44547 5.49724 2.36782 5.33122C2.30299 5.1652 2.12131 5.07598 1.95243 5.12699C1.80996 5.1652 1.66729 5.2164 1.52443 5.26741C1.00578 5.49724 0.577387 5.89309 0.370082 6.41656C-0.00609612 7.34869 0.370082 8.34462 1.0314 9.04672C2.12131 10.1705 3.85973 10.5789 5.39025 10.6555C5.37724 15.0862 5.39025 19.504 5.39025 23.9345C5.44207 24.5602 6.31148 24.7262 6.81732 24.7388C7.34936 24.7517 8.5037 24.5856 8.51691 23.8707L8.55573 23.3216C8.77624 21.3554 10.696 13.4901 13.1219 13.4773C13.7188 13.4773 14.0173 13.8604 14.0173 14.435V21.4448C14.0173 23.6153 15.2625 25.0708 17.5198 25.0708C19.2711 25.0837 20.8535 23.8323 21.8006 22.2747C21.9302 22.4407 22.0341 22.6193 22.1768 22.7726C23.4091 24.1899 25.2254 25.0965 27.3011 25.1092C31.8282 25.0453 34.1503 21.2149 33.982 17.4483C35.0327 16.8738 35.9798 16.133 36.706 15.2137V23.9345C36.758 24.5602 37.6662 24.7262 38.1723 24.7388C38.7039 24.7517 39.8587 24.5856 39.8587 23.8707L39.9105 23.3216L40.0659 21.8661C40.2997 19.8359 41.8434 13.4901 44.4768 13.4773C45.0603 13.4773 45.3591 13.8604 45.3591 14.435V21.4448C45.3591 23.6153 46.6044 25.0708 48.8743 25.0708C50.4442 25.0837 51.8711 24.075 52.8311 22.7471C54.1023 24.292 56.0485 25.1985 58.3832 25.1985C61.1207 25.1985 63.1052 24.0111 64.4285 22.0958C64.7269 23.7431 65.622 25.0453 67.8145 25.0708C70.0844 25.0837 71.81 21.9683 72.5235 20.0912V25.1092C71.8486 25.2241 71.1873 25.3901 70.5259 25.5815C63.3519 27.599 64.7269 35.03 70.0716 35.145C73.6909 35.2344 75.8183 32.8977 75.8055 29.3483C75.8055 28.7482 75.7925 27.6246 75.8055 27.0371C77.0898 27.2287 78.0756 28.9014 78.6076 29.974C78.6983 30.1399 78.7763 30.3057 78.8412 30.4718C78.9189 30.6378 79.0874 30.7144 79.2692 30.676C79.4118 30.6378 79.5545 30.5868 79.6842 30.5228C80.2162 30.2931 80.6444 29.9101 80.8519 29.3738C81.2281 28.4418 80.8519 27.4586 80.1772 26.7562C79.1007 25.62 77.349 25.2241 75.8315 25.1347Z" fill="white"/>
</g>
<defs>
<clipPath id="clip0_320_6240">
<rect width="81" height="36" fill="white"/>
</clipPath>
</defs>
</svg>
