<svg width="48" height="48" viewBox="0 0 48 48" fill="none" xmlns="http://www.w3.org/2000/svg">
<g id="tabler-icon-circle-check">
<path id="Vector" d="M6 24C6 26.3638 6.46558 28.7044 7.37017 30.8883C8.27475 33.0722 9.60062 35.0565 11.2721 36.7279C12.9435 38.3994 14.9278 39.7253 17.1117 40.6298C19.2956 41.5344 21.6362 42 24 42C26.3638 42 28.7044 41.5344 30.8883 40.6298C33.0722 39.7253 35.0565 38.3994 36.7279 36.7279C38.3994 35.0565 39.7253 33.0722 40.6298 30.8883C41.5344 28.7044 42 26.3638 42 24C42 21.6362 41.5344 19.2956 40.6298 17.1117C39.7253 14.9278 38.3994 12.9435 36.7279 11.2721C35.0565 9.60062 33.0722 8.27475 30.8883 7.37017C28.7044 6.46558 26.3638 6 24 6C21.6362 6 19.2956 6.46558 17.1117 7.37017C14.9278 8.27475 12.9435 9.60062 11.2721 11.2721C9.60062 12.9435 8.27475 14.9278 7.37017 17.1117C6.46558 19.2956 6 21.6362 6 24Z" fill="#5B3353"/>
<path id="Vector_2" d="M19.4142 22.5858C18.6332 21.8047 17.3668 21.8047 16.5858 22.5858C15.8047 23.3668 15.8047 24.6332 16.5858 25.4142L19.4142 22.5858ZM22 28L20.5858 29.4142C21.3668 30.1953 22.6332 30.1953 23.4142 29.4142L22 28ZM31.4142 21.4142C32.1953 20.6332 32.1953 19.3668 31.4142 18.5858C30.6332 17.8047 29.3668 17.8047 28.5858 18.5858L31.4142 21.4142ZM16.5858 25.4142L20.5858 29.4142L23.4142 26.5858L19.4142 22.5858L16.5858 25.4142ZM23.4142 29.4142L31.4142 21.4142L28.5858 18.5858L20.5858 26.5858L23.4142 29.4142Z" fill="#FACCDE"/>
</g>
</svg>
