<svg width="36" height="36" viewBox="0 0 36 36" fill="none" xmlns="http://www.w3.org/2000/svg">
<circle cx="18" cy="18" r="18" fill="#E9357B"/>
<path d="M15.25 27C15.25 27.4142 15.5858 27.75 16 27.75C16.4142 27.75 16.75 27.4142 16.75 27H15.25ZM16 20.5H16.75H16ZM9 20.5H8.25H9ZM9 27H8.25C8.25 27.4142 8.58579 27.75 9 27.75V27ZM27 27V27.75C27.4142 27.75 27.75 27.4142 27.75 27H27ZM23 17V16.25V17ZM17.25 17C17.25 17.4142 17.5858 17.75 18 17.75C18.4142 17.75 18.75 17.4142 18.75 17H17.25ZM18 9V8.25C17.5858 8.25 17.25 8.58579 17.25 9H18ZM22 9L22.5303 8.46967C22.3897 8.32902 22.1989 8.25 22 8.25V9ZM24 11L24.5303 11.5303C24.8232 11.2374 24.8232 10.7626 24.5303 10.4697L24 11ZM22 13V13.75C22.1989 13.75 22.3897 13.671 22.5303 13.5303L22 13ZM18 12.25C17.5858 12.25 17.25 12.5858 17.25 13C17.25 13.4142 17.5858 13.75 18 13.75V12.25ZM12 20.25C11.5858 20.25 11.25 20.5858 11.25 21C11.25 21.4142 11.5858 21.75 12 21.75V20.25ZM13 21.75C13.4142 21.75 13.75 21.4142 13.75 21C13.75 20.5858 13.4142 20.25 13 20.25V21.75ZM16.75 27V20.5H15.25V27H16.75ZM16.75 20.5C16.75 19.3728 16.3022 18.2918 15.5052 17.4948L14.4445 18.5555C14.9603 19.0712 15.25 19.7707 15.25 20.5H16.75ZM15.5052 17.4948C14.7082 16.6978 13.6272 16.25 12.5 16.25V17.75C13.2293 17.75 13.9288 18.0397 14.4445 18.5555L15.5052 17.4948ZM12.5 16.25C11.3728 16.25 10.2918 16.6978 9.4948 17.4948L10.5555 18.5555C11.0712 18.0397 11.7707 17.75 12.5 17.75V16.25ZM9.4948 17.4948C8.69777 18.2918 8.25 19.3728 8.25 20.5H9.75C9.75 19.7707 10.0397 19.0712 10.5555 18.5555L9.4948 17.4948ZM8.25 20.5V27H9.75V20.5H8.25ZM9 27.75H27V26.25H9V27.75ZM27.75 27V21H26.25V27H27.75ZM27.75 21C27.75 19.7402 27.2496 18.532 26.3588 17.6412L25.2981 18.7019C25.9076 19.3114 26.25 20.138 26.25 21H27.75ZM26.3588 17.6412C25.468 16.7504 24.2598 16.25 23 16.25V17.75C23.862 17.75 24.6886 18.0924 25.2981 18.7019L26.3588 17.6412ZM23 16.25H12.5V17.75H23V16.25ZM18.75 17V9H17.25V17H18.75ZM18 9.75H22V8.25H18V9.75ZM21.4697 9.53033L23.4697 11.5303L24.5303 10.4697L22.5303 8.46967L21.4697 9.53033ZM23.4697 10.4697L21.4697 12.4697L22.5303 13.5303L24.5303 11.5303L23.4697 10.4697ZM22 12.25H18V13.75H22V12.25ZM12 21.75H13V20.25H12V21.75Z" fill="white"/>
</svg>
