<svg width="36" height="36" viewBox="0 0 36 36" fill="none" xmlns="http://www.w3.org/2000/svg">
<circle cx="18" cy="18" r="18" fill="#E9357B"/>
<path d="M12 11V10.25V11ZM24 11V10.25V11ZM10 25H9.25H10ZM22.75 9C22.75 8.58579 22.4142 8.25 22 8.25C21.5858 8.25 21.25 8.58579 21.25 9H22.75ZM21.25 13C21.25 13.4142 21.5858 13.75 22 13.75C22.4142 13.75 22.75 13.4142 22.75 13H21.25ZM14.75 9C14.75 8.58579 14.4142 8.25 14 8.25C13.5858 8.25 13.25 8.58579 13.25 9H14.75ZM13.25 13C13.25 13.4142 13.5858 13.75 14 13.75C14.4142 13.75 14.75 13.4142 14.75 13H13.25ZM10 16.25C9.58579 16.25 9.25 16.5858 9.25 17C9.25 17.4142 9.58579 17.75 10 17.75V16.25ZM26 17.75C26.4142 17.75 26.75 17.4142 26.75 17C26.75 16.5858 26.4142 16.25 26 16.25V17.75ZM17 20.25C16.5858 20.25 16.25 20.5858 16.25 21C16.25 21.4142 16.5858 21.75 17 21.75V20.25ZM18 21H18.75C18.75 20.5858 18.4142 20.25 18 20.25V21ZM17.25 24C17.25 24.4142 17.5858 24.75 18 24.75C18.4142 24.75 18.75 24.4142 18.75 24H17.25ZM10.75 13C10.75 12.6685 10.8817 12.3505 11.1161 12.1161L10.0555 11.0555C9.53973 11.5712 9.25 12.2707 9.25 13H10.75ZM11.1161 12.1161C11.3505 11.8817 11.6685 11.75 12 11.75V10.25C11.2707 10.25 10.5712 10.5397 10.0555 11.0555L11.1161 12.1161ZM12 11.75H24V10.25H12V11.75ZM24 11.75C24.3315 11.75 24.6495 11.8817 24.8839 12.1161L25.9445 11.0555C25.4288 10.5397 24.7293 10.25 24 10.25V11.75ZM24.8839 12.1161C25.1183 12.3505 25.25 12.6685 25.25 13H26.75C26.75 12.2707 26.4603 11.5712 25.9445 11.0555L24.8839 12.1161ZM25.25 13V25H26.75V13H25.25ZM25.25 25C25.25 25.3315 25.1183 25.6495 24.8839 25.8839L25.9445 26.9445C26.4603 26.4288 26.75 25.7293 26.75 25H25.25ZM24.8839 25.8839C24.6495 26.1183 24.3315 26.25 24 26.25V27.75C24.7293 27.75 25.4288 27.4603 25.9445 26.9445L24.8839 25.8839ZM24 26.25H12V27.75H24V26.25ZM12 26.25C11.6685 26.25 11.3505 26.1183 11.1161 25.8839L10.0555 26.9445C10.5712 27.4603 11.2707 27.75 12 27.75V26.25ZM11.1161 25.8839C10.8817 25.6495 10.75 25.3315 10.75 25H9.25C9.25 25.7293 9.53973 26.4288 10.0555 26.9445L11.1161 25.8839ZM10.75 25V13H9.25V25H10.75ZM21.25 9V13H22.75V9H21.25ZM13.25 9V13H14.75V9H13.25ZM10 17.75H26V16.25H10V17.75ZM17 21.75H18V20.25H17V21.75ZM17.25 21V24H18.75V21H17.25Z" fill="white"/>
</svg>
