<svg width="36" height="36" viewBox="0 0 36 36" fill="none" xmlns="http://www.w3.org/2000/svg">
<circle cx="18" cy="18" r="18" fill="#E9357B"/>
<path d="M14 11V11.75V11ZM28 23.75C28.4142 23.75 28.75 23.4142 28.75 23C28.75 22.5858 28.4142 22.25 28 22.25V23.75ZM27 13V13.75V13ZM28 13.75C28.4142 13.75 28.75 13.4142 28.75 13C28.75 12.5858 28.4142 12.25 28 12.25V13.75ZM8 22.25C7.58579 22.25 7.25 22.5858 7.25 23C7.25 23.4142 7.58579 23.75 8 23.75V22.25ZM10 22H10.75H10ZM10 14H10.75H10ZM8 12.25C7.58579 12.25 7.25 12.5858 7.25 13C7.25 13.4142 7.58579 13.75 8 13.75V12.25ZM13.75 12C13.75 11.9337 13.7763 11.8701 13.8232 11.8232L12.7626 10.7626C12.4344 11.0908 12.25 11.5359 12.25 12H13.75ZM13.8232 11.8232C13.8701 11.7763 13.9337 11.75 14 11.75V10.25C13.5359 10.25 13.0908 10.4344 12.7626 10.7626L13.8232 11.8232ZM14 11.75H22V10.25H14V11.75ZM22 11.75C22.0663 11.75 22.1299 11.7763 22.1768 11.8232L23.2374 10.7626C22.9092 10.4344 22.4641 10.25 22 10.25V11.75ZM22.1768 11.8232C22.2237 11.8701 22.25 11.9337 22.25 12H23.75C23.75 11.5359 23.5656 11.0908 23.2374 10.7626L22.1768 11.8232ZM22.25 12V24H23.75V12H22.25ZM22.25 24C22.25 24.0663 22.2237 24.1299 22.1768 24.1768L23.2374 25.2374C23.5656 24.9092 23.75 24.4641 23.75 24H22.25ZM22.1768 24.1768C22.1299 24.2237 22.0663 24.25 22 24.25V25.75C22.4641 25.75 22.9092 25.5656 23.2374 25.2374L22.1768 24.1768ZM22 24.25H14V25.75H22V24.25ZM14 24.25C13.9337 24.25 13.8701 24.2237 13.8232 24.1768L12.7626 25.2374C13.0908 25.5656 13.5359 25.75 14 25.75V24.25ZM13.8232 24.1768C13.7763 24.1299 13.75 24.0663 13.75 24H12.25C12.25 24.4641 12.4344 24.9092 12.7626 25.2374L13.8232 24.1768ZM13.75 24V12H12.25V24H13.75ZM28 22.25H27V23.75H28V22.25ZM27 22.25C26.9337 22.25 26.8701 22.2237 26.8232 22.1768L25.7626 23.2374C26.0908 23.5656 26.5359 23.75 27 23.75V22.25ZM26.8232 22.1768C26.7763 22.1299 26.75 22.0663 26.75 22H25.25C25.25 22.4641 25.4344 22.9092 25.7626 23.2374L26.8232 22.1768ZM26.75 22V14H25.25V22H26.75ZM26.75 14C26.75 13.9337 26.7763 13.8701 26.8232 13.8232L25.7626 12.7626C25.4344 13.0908 25.25 13.5359 25.25 14H26.75ZM26.8232 13.8232C26.8701 13.7763 26.9337 13.75 27 13.75V12.25C26.5359 12.25 26.0908 12.4344 25.7626 12.7626L26.8232 13.8232ZM27 13.75H28V12.25H27V13.75ZM8 23.75H9V22.25H8V23.75ZM9 23.75C9.46413 23.75 9.90925 23.5656 10.2374 23.2374L9.17678 22.1768C9.12989 22.2237 9.06631 22.25 9 22.25V23.75ZM10.2374 23.2374C10.5656 22.9092 10.75 22.4641 10.75 22H9.25C9.25 22.0663 9.22366 22.1299 9.17678 22.1768L10.2374 23.2374ZM10.75 22V14H9.25V22H10.75ZM10.75 14C10.75 13.5359 10.5656 13.0908 10.2374 12.7626L9.17678 13.8232C9.22366 13.8701 9.25 13.9337 9.25 14H10.75ZM10.2374 12.7626C9.90925 12.4344 9.46413 12.25 9 12.25V13.75C9.0663 13.75 9.12989 13.7763 9.17678 13.8232L10.2374 12.7626ZM9 12.25H8V13.75H9V12.25Z" fill="white"/>
</svg>
