<svg width="36" height="36" viewBox="0 0 36 36" fill="none" xmlns="http://www.w3.org/2000/svg">
<circle cx="18" cy="18" r="18" fill="#E9357B"/>
<path d="M14 13H13.25H14ZM18 17V17.75V17ZM22 13H22.75H22ZM18 9V8.25V9ZM11.25 27C11.25 27.4142 11.5858 27.75 12 27.75C12.4142 27.75 12.75 27.4142 12.75 27H11.25ZM16 21V20.25V21ZM20 21.75C20.4142 21.75 20.75 21.4142 20.75 21C20.75 20.5858 20.4142 20.25 20 20.25V21.75ZM21.5303 24.4697C21.2374 24.1768 20.7626 24.1768 20.4697 24.4697C20.1768 24.7626 20.1768 25.2374 20.4697 25.5303L21.5303 24.4697ZM23 27L22.4697 27.5303C22.7626 27.8232 23.2374 27.8232 23.5303 27.5303L23 27ZM27.5303 23.5303C27.8232 23.2374 27.8232 22.7626 27.5303 22.4697C27.2374 22.1768 26.7626 22.1768 26.4697 22.4697L27.5303 23.5303ZM13.25 13C13.25 14.2598 13.7504 15.468 14.6412 16.3588L15.7019 15.2981C15.0924 14.6886 14.75 13.862 14.75 13H13.25ZM14.6412 16.3588C15.532 17.2496 16.7402 17.75 18 17.75V16.25C17.138 16.25 16.3114 15.9076 15.7019 15.2981L14.6412 16.3588ZM18 17.75C19.2598 17.75 20.468 17.2496 21.3588 16.3588L20.2981 15.2981C19.6886 15.9076 18.862 16.25 18 16.25V17.75ZM21.3588 16.3588C22.2496 15.468 22.75 14.2598 22.75 13H21.25C21.25 13.862 20.9076 14.6886 20.2981 15.2981L21.3588 16.3588ZM22.75 13C22.75 11.7402 22.2496 10.532 21.3588 9.64124L20.2981 10.7019C20.9076 11.3114 21.25 12.138 21.25 13H22.75ZM21.3588 9.64124C20.468 8.75044 19.2598 8.25 18 8.25V9.75C18.862 9.75 19.6886 10.0924 20.2981 10.7019L21.3588 9.64124ZM18 8.25C16.7402 8.25 15.532 8.75044 14.6412 9.64124L15.7019 10.7019C16.3114 10.0924 17.138 9.75 18 9.75V8.25ZM14.6412 9.64124C13.7504 10.532 13.25 11.7402 13.25 13H14.75C14.75 12.138 15.0924 11.3114 15.7019 10.7019L14.6412 9.64124ZM12.75 27V25H11.25V27H12.75ZM12.75 25C12.75 24.138 13.0924 23.3114 13.7019 22.7019L12.6412 21.6412C11.7504 22.532 11.25 23.7402 11.25 25H12.75ZM13.7019 22.7019C14.3114 22.0924 15.138 21.75 16 21.75V20.25C14.7402 20.25 13.532 20.7504 12.6412 21.6412L13.7019 22.7019ZM16 21.75H20V20.25H16V21.75ZM20.4697 25.5303L22.4697 27.5303L23.5303 26.4697L21.5303 24.4697L20.4697 25.5303ZM23.5303 27.5303L27.5303 23.5303L26.4697 22.4697L22.4697 26.4697L23.5303 27.5303Z" fill="white"/>
</svg>
