<svg fill="none" height="29" viewBox="0 0 102 29" width="102" xmlns="http://www.w3.org/2000/svg" xmlns:xlink="http://www.w3.org/1999/xlink"><clipPath id="a"><path d="m0 0h102v29h-102z"/></clipPath><g clip-path="url(#a)"><path d="m26.6528 11.609s2.7292-2.21811 6.0555-2.21811v4.27191c-6.4819-.0821-6.0555 4.9291-6.0555 4.9291v9.8583h-4.0085v-18.7307h4.0085zm23.5395-1.8895h3.9233v10.4333c0 4.7649-3.9233 8.7903-8.87 8.7903s-8.87-4.0254-8.87-8.7903v-10.4333h3.9233v10.4333c0 2.6289 2.2175 4.847 4.9467 4.847s4.9467-2.2181 4.9467-4.847zm7.8465 18.7307v-18.7307h4.0085v18.8129h-4.0085zm-47.2496-15.2803c-3.32619 0-6.0554 2.6289-6.0554 5.8328 0 3.204 2.72921 5.8328 6.0554 5.8328 2.047 0 3.838-.9858 5.032-2.5467l3.1557 2.3003c-1.9616 2.5467-4.9467 4.1076-8.1877 4.1076-5.54368.0821-9.978653-4.2719-9.978653-9.694 0-5.422 4.520263-9.69396 9.978653-9.69396 3.241 0 6.3966 1.56086 8.1877 4.10766l-3.1557 2.3002c-1.1087-1.5609-2.985-2.5467-5.032-2.5467zm75.5652 4.1076h11.5992c-1.1088-4.6005-5.7996-4.4362-5.7996-4.4362s-4.2644-.3286-5.7996 4.4362zm5.7143-7.88661s10.2343-.32861 9.7233 11.09061h-15.5229c.3412 1.3965 1.0235 2.5467 2.1322 3.5325 1.1088.9858 2.5587 1.4787 4.1791 1.4787 0 0 3.3263.1643 5.2879-2.5467l2.8997 2.0538c-.767 1.068-2.0468 1.9717-3.7526 2.7932-1.4499.6572-3.1556 1.068-4.7761 1.068-5.5437 0-9.7228-4.3541-9.7228-9.694-.0853-5.422 4.1791-9.77611 9.5522-9.77611zm-14.0725 9.61181s2.1322 1.2323 2.0469 4.1076c0 0 .1706 4.0255-4.435 5.3399 0 0-5.4584 1.7252-9.8934-2.5467l2.0469-2.711c4.5203 3.6147 7.5054 1.5609 7.5054 1.5609.5117-.4108.7676-.9037.7676-1.4788 0-1.4787-1.9617-1.9716-1.9617-1.9716-.597-.1643-1.194-.4108-1.9616-.5751 0 0-2.388-.5751-4.1791-1.643-.597-.4108-1.1087-.9037-1.5352-1.5609-.4264-.6572-.597-1.4788-.597-2.4646 0 0-.1706-3.6969 3.4115-5.25775 0 0 5.032-2.05381 9.7229 1.56085l-2.0469 2.8754c-2.1322-1.5609-4.2644-1.4788-4.2644-1.4788-.9382 0-1.5352.1643-2.047.5751-.4264.4108-.6823.7394-.6823 1.2323 0 0-.1705 1.1501 1.9617 1.9716.597.1643 1.194.4108 1.9616.5751.6823.1643 1.4499.4929 2.1322.6572.7676.4929 1.4499.9037 2.0469 1.2323zm-17.9958-18.073501c1.5352 0 2.7292 1.150131 2.7292 2.711031 0 1.56089-1.194 2.71102-2.7292 2.71102s-2.7292-1.15013-2.7292-2.71102c0-1.5609 1.194-2.711031 2.7292-2.711031z" fill="#fff"/></g></svg>