<svg fill="none" height="41" viewBox="0 0 180 41" width="180" xmlns="http://www.w3.org/2000/svg"><g fill="white"><path d="m18.875 40.2061c-.0298 0-.0596.0297-.0596.0595s.0298.0596.0596.0596.0596-.0298.0596-.0596-.0298-.0595-.0596-.0595z"/><path d="m16.9687 39.5508c-.0893 0-.1489.0595-.1489.1489 0 .0893.0596.1489.1489.1489.0894 0 .1489-.0596.1489-.1489 0-.0894-.0595-.1489-.1489-.1489z"/><path d="m15.1225 38.6865c-.1191 0-.2084.0894-.2084.2085s.0893.2085.2084.2085c.1192 0 .2085-.0894.2085-.2085s-.0893-.2085-.2085-.2085z"/><path d="m13.395 37.6445c-.1489 0-.268.1192-.268.2681s.1191.268.268.268.268-.1191.268-.268-.1191-.2681-.268-.2681z"/><path d="m11.7573 36.3936c-.1787 0-.3574.1489-.3574.3573 0 .1787.1489.3574.3574.3574.1787 0 .3574-.1489.3574-.3574 0-.1786-.1489-.3573-.3574-.3573z"/><path d="m10.268 35.0234c-.2382 0-.41693.1787-.41693.417s.17873.4169.41693.4169c.2383 0 .417-.1786.417-.4169s-.1787-.417-.417-.417z"/><path d="m8.8979 33.4746c-.26804 0-.47651.2085-.47651.4765 0 .2681.20847.4765.47651.4765s.47651-.2084.47651-.4765c.02979-.268-.20847-.4765-.47651-.4765z"/><path d="m7.73627 31.7773c-.29782 0-.56586.2383-.56586.5659 0 .2978.23826.5659.56586.5659.29782 0 .56586-.2383.56586-.5659-.02978-.2978-.26804-.5659-.56586-.5659z"/><path d="m7.37927 30.5864c0-.3276-.26804-.6255-.62543-.6255-.35738 0-.62542.2681-.62542.6255 0 .3276.26804.6254.62542.6254.35739 0 .62543-.2681.62543-.6254z"/><path d="m6.69419 28.7397c0-.3872-.29782-.685-.68498-.685-.38717 0-.68499.2978-.68499.685 0 .3871.29782.685.68499.685.38716 0 .68498-.2979.68498-.685z"/><path d="m6.27719 26.8041c0-.4169-.3276-.7445-.74455-.7445s-.74455.3276-.74455.7445c0 .417.3276.7446.74455.7446s.74455-.3276.74455-.7446z"/><path d="m6.12825 24.8085c0-.4467-.35739-.8339-.8339-.8339-.44673 0-.8339.3574-.8339.8339 0 .4467.35739.8339.8339.8339s.8339-.3872.8339-.8339z"/><path d="m5.35391 23.7068c.5063 0 .89347-.3871.89347-.8934s-.38717-.8935-.89347-.8935c-.50629 0-.89346.3872-.89346.8935 0 .4765.38717.8934.89346.8934z"/><path d="m4.66895 20.8173c0 .5361.41694.953.95302.953s.95303-.4169.95303-.953-.41695-.953-.95303-.953c-.50629 0-.95302.4169-.95302.953z"/><path d="m33.6172 35.5898c-.0298 0-.0596.0298-.0596.0596s.0298.0596.0596.0596.0595-.0298.0595-.0596-.0297-.0596-.0595-.0596z"/><path d="m31.8599 36.4531c-.0596 0-.1192.0596-.1192.1192 0 .0595.0596.1191.1192.1191.0595 0 .1191-.0596.1191-.1191 0-.0596-.0596-.1192-.1191-.1192z"/><path d="m29.9834 37.1387c-.0894 0-.1787.0893-.1787.1787 0 .0893.0893.1787.1787.1787.0893 0 .1787-.0894.1787-.1787 0-.0894-.0596-.1787-.1787-.1787z"/><path d="m28.0776 37.6143c-.1489 0-.2382.1191-.2382.2382s.1191.2383.2382.2383.2383-.1192.2383-.2383-.1192-.2382-.2383-.2382z"/><path d="m26.082 37.8828c-.1787 0-.2978.1489-.2978.2978 0 .1787.1489.2979.2978.2979.1787 0 .2978-.149.2978-.2979.0298-.1489-.1191-.2978-.2978-.2978z"/><path d="m24.0869 37.9717c-.2085 0-.3574.1489-.3574.3574 0 .2084.1489.3573.3574.3573s.3574-.1786.3574-.3573c.0297-.2085-.1489-.3574-.3574-.3574z"/><path d="m22.0913 37.8232c-.2383 0-.417.1787-.417.417 0 .2382.1787.4169.417.4169.2382 0 .4169-.1787.4169-.4169.0298-.2383-.1787-.417-.4169-.417z"/><path d="m20.1259 37.4658c-.268 0-.4765.2085-.4765.4765 0 .2681.2085.4766.4765.4766.2681 0 .4765-.2085.4765-.4766 0-.268-.2084-.4765-.4765-.4765z"/><path d="m18.1899 36.8408c-.2978 0-.5361.2383-.5361.5361s.2383.5361.5361.5361.5361-.2383.5361-.5361c.0297-.2978-.2383-.5361-.5361-.5361z"/><path d="m16.3735 35.9766c-.3276 0-.5957.268-.5957.5956s.2681.5956.5957.5956.5956-.268.5956-.5956c0-.2978-.268-.5956-.5956-.5956z"/><path d="m15.3309 35.5595c0-.3574-.2978-.6552-.6552-.6552s-.685.2978-.685.6552.2978.6552.685.6552c.3574.0298.6552-.268.6552-.6552z"/><path d="m13.0976 33.5938c-.417 0-.7446.3276-.7446.7445 0 .417.3276.7446.7446.7446.3871 0 .7445-.3276.7445-.7446 0-.4169-.3574-.7445-.7445-.7445z"/><path d="m11.6977 32.0752c-.4468 0-.8041.3574-.8041.8041s.3573.8041.8041.8041c.4467 0 .8041-.3574.8041-.8041s-.3574-.8041-.8041-.8041z"/><path d="m10.5063 32.1346c.4765 0 .8636-.3872.8636-.8637s-.3871-.8637-.8636-.8637c-.4766 0-.86372.3872-.86372.8637.02978.4765.38712.8637.86372.8637z"/><path d="m10.4471 29.5141c0-.5063-.417-.9233-.92327-.9233-.5063 0-.92324.417-.92324.9233s.41694.9232.92324.9232c.53607 0 .92327-.4169.92327-.9232z"/><path d="m40.7949 21.9199c-.0298 0-.0595.0298-.0595.0596s.0297.0596.0595.0596.0596-.0298.0596-.0596c-.0298-.0298-.0298-.0596-.0596-.0596z"/><path d="m40.1987 23.7656c-.0595 0-.1191.0596-.1191.1192 0 .0595.0596.1191.1191.1191.0596 0 .1191-.0596.1191-.1191 0-.0596-.0595-.1192-.1191-.1192z"/><path d="m39.395 25.5527c-.0893 0-.1489.0596-.1489.1489 0 .0894.0596.1787.1489.1787.0894 0 .1787-.0595.1787-.1787-.0298-.0595-.0893-.1489-.1787-.1489z"/><path d="m38.4126 27.251c-.1191 0-.2085.0893-.2085.2084 0 .1192.0894.2085.2085.2085s.2085-.0893.2085-.2085c0-.1191-.0894-.2084-.2085-.2084z"/><path d="m37.2505 28.8291c-.149 0-.2681.1191-.2681.268s.1191.2681.2681.2681c.1489 0 .268-.1192.268-.2681s-.1191-.268-.268-.268z"/><path d="m35.9399 30.2588c-.1787 0-.3276.1489-.3276.3276s.1489.3276.3276.3276.3276-.1489.3276-.3276-.1489-.3276-.3276-.3276z"/><path d="m34.4511 31.5693c-.2084 0-.3871.1787-.3871.3872s.1787.3872.3871.3872c.2085 0 .3872-.1787.3872-.3872s-.1787-.3872-.3872-.3872z"/><path d="m32.8427 32.7012c-.2382 0-.4467.2084-.4467.4467s.2085.4467.4467.4467c.2383 0 .4468-.2084.4468-.4467s-.2085-.4467-.4468-.4467z"/><path d="m31.1157 33.624c-.2681 0-.5063.2085-.5063.4765 0 .2681.2085.5063.5063.5063.268 0 .4765-.2084.4765-.5063 0-.268-.2085-.4765-.4765-.4765z"/><path d="m29.2392 34.2793c-.2978 0-.5361.2383-.5361.5361s.2383.5361.5361.5361.5361-.2383.5361-.5361c0-.2681-.2383-.5361-.5361-.5361z"/><path d="m27.3036 34.7256c-.3276 0-.5956.268-.5956.5956s.268.5957.5956.5957c.3277 0 .5957-.2681.5957-.5957s-.268-.5956-.5957-.5956z"/><path d="m25.308 34.9043c-.3573 0-.6552.2978-.6552.6552s.2979.6552.6552.6552c.3574 0 .6552-.2978.6552-.6552s-.2978-.6552-.6552-.6552z"/><path d="m24.0277 35.4999c0-.3871-.3276-.7147-.7148-.7147s-.7148.3276-.7148.7147c0 .3872.3276.7148.7148.7148s.7148-.3276.7148-.7148z"/><path d="m22.0912 35.2021c0-.417-.3277-.7744-.7744-.7744-.4169 0-.7743.3276-.7743.7744 0 .4169.3276.7743.7743.7743s.7744-.3276.7744-.7743z"/><path d="m20.2449 34.6664c0-.4467-.3573-.8041-.8338-.8041-.4468 0-.8042.3574-.8042.8041 0 .4468.3574.8339.8042.8339.4467-.0298.8338-.3871.8338-.8339z"/><path d="m18.4583 33.8617c0-.4765-.3872-.8637-.8637-.8637s-.8636.3872-.8636.8637.3871.8637.8636.8637.8637-.3872.8637-.8637z"/><path d="m36.1787 7.29687c.0298 0 .0596-.02979.0596-.05957s-.0298-.05957-.0596-.05957-.0596.02979-.0596.05957.0298.05957.0596.05957z"/><path d="m37.1015 9.11325c.0596 0 .1192-.05956.1192-.11912 0-.05957-.0596-.11913-.1192-.11913-.0595 0-.1191.05956-.1191.11913 0 .05956.0596.11912.1191.11912z"/><path d="m37.8462 11.0195c.0893 0 .1489-.0596.1489-.1489 0-.0894-.0596-.1489-.1489-.1489-.0894 0-.149.0595-.149.1489-.0297.0893.0596.1489.149.1489z"/><path d="m38.382 13.0146c.1192 0 .2085-.0893.2085-.2085 0-.1191-.0893-.2084-.2085-.2084-.1191 0-.2084.0893-.2084.2084-.0298.1192.0893.2085.2084.2085z"/><path d="m38.4419 14.7719c0 .1489.1191.268.268.268s.2681-.1191.2681-.268-.1192-.2681-.2681-.2681c-.1489-.0297-.268.1192-.268.2681z"/><path d="m38.8291 16.4395c-.1787 0-.3276.1489-.3276.3276s.1489.3276.3276.3276.3276-.1489.3276-.3276-.1489-.3276-.3276-.3276z"/><path d="m38.7397 18.376c-.2085 0-.3872.1787-.3872.3871 0 .2085.1787.3872.3872.3872s.3872-.1787.3872-.3872c0-.2084-.1787-.3871-.3872-.3871z"/><path d="m38.4418 20.3115c-.2382 0-.4467.2085-.4467.4468 0 .2382.2085.4467.4467.4467.2383 0 .4468-.1787.4468-.4467 0-.2681-.2085-.4468-.4468-.4468z"/><path d="m38.3822 22.664c0-.268-.2085-.4765-.4765-.4765s-.5063.2085-.5063.4765.2085.4765.5063.4765c.268 0 .4765-.2085.4765-.4765z"/><path d="m37.102 23.9443c-.2978 0-.5361.2383-.5361.5361s.2383.5361.5361.5361.5361-.2383.5361-.5361-.2383-.5361-.5361-.5361z"/><path d="m36.0893 25.6123c-.3276 0-.5956.268-.5956.5956s.268.5957.5956.5957.5956-.2681.5956-.5957-.268-.5956-.5956-.5956z"/><path d="m34.8383 27.1016c-.3574 0-.6552.2978-.6552.6552 0 .3573.2978.6552.6552.6552s.6552-.2979.6552-.6552c0-.3574-.2978-.6552-.6552-.6552z"/><path d="m33.3793 28.4414c-.3871 0-.7147.3276-.7147.7148 0 .3871.3276.7147.7147.7147.3872 0 .7148-.3276.7148-.7147 0-.3872-.3276-.7148-.7148-.7148z"/><path d="m31.7709 29.5732c-.4169 0-.7743.3276-.7743.7744 0 .4169.3276.7743.7743.7743.417 0 .7744-.3276.7744-.7743 0-.417-.3574-.7744-.7744-.7744z"/><path d="m30.0434 30.4971c-.4468 0-.8041.3574-.8041.8339 0 .4467.3573.8041.8041.8041.4467 0 .8041-.3574.8041-.8041 0-.4765-.3574-.8339-.8041-.8339z"/><path d="m28.1669 31.1816c-.4765 0-.8637.3872-.8637.8637s.3872.8637.8637.8637.8637-.3872.8637-.8637-.3872-.8637-.8637-.8637z"/><path d="m22.4785.119127c.0298 0 .0596-.0297862.0596-.0595683s-.0298-.0595587-.0596-.0595587-.0596.0297766-.0596.0595587.0298.0595683.0596.0595683z"/><path d="m24.3848.774386c.0595 0 .1191-.059562.1191-.119127 0-.059564-.0596-.119126-.1191-.119126-.0596 0-.1192.059562-.1192.119126.0298.089347.0596.119127.1192.119127z"/><path d="m26.2309 1.63815c.0894 0 .1489-.05956.1489-.14891s-.0595-.17869-.1489-.17869c-.0893 0-.1787.05956-.1787.17869 0 .05957.0894.14891.1787.14891z"/><path d="m27.9585 2.65035c.1191 0 .2084-.08935.2084-.20848s-.0893-.20847-.2084-.20847c-.1192 0-.2085.08934-.2085.20847s.0893.20848.2085.20848z"/><path d="m29.5962 3.87202c.1489 0 .268-.11913.268-.26805 0-.14891-.1191-.26803-.268-.26803s-.2681.11912-.2681.26803c0 .14892.1192.26805.2681.26805z"/><path d="m31.1157 5.24114c.1787 0 .3276-.1489.3276-.3276 0-.17869-.1489-.3276-.3276-.3276s-.3276.14891-.3276.3276c0 .1787.1191.3276.3276.3276z"/><path d="m32.4555 6.78996c.2085 0 .3872-.17869.3872-.38716 0-.20848-.1787-.38718-.3872-.38718-.2084 0-.3871.1787-.3871.38718 0 .20847.1787.38716.3871.38716z"/><path d="m33.6469 8.42862c.2383 0 .4468-.20848.4468-.44673 0-.23826-.2085-.44673-.4468-.44673-.2382 0-.4467.20847-.4467.44673 0 .23825.2085.44673.4467.44673z"/><path d="m34.6 10.245c.2681 0 .4766-.2085.4766-.47649 0-.26804-.2085-.47652-.4766-.47652-.268 0-.5062.20848-.5062.47652.0297.26799.2382.47649.5062.47649z"/><path d="m34.8081 11.6152c0 .2978.2383.5361.5361.5361s.5361-.2383.5361-.5361-.2383-.5361-.5361-.5361-.5361.2383-.5361.5361z"/><path d="m35.2256 13.5507c0 .3276.268.5957.5956.5957s.5957-.2681.5957-.5957-.2681-.5956-.5957-.5956-.5956.268-.5956.5956z"/><path d="m35.4043 15.5468c0 .3574.2978.6552.6552.6552s.6552-.2978.6552-.6552-.2978-.6552-.6552-.6552-.6552.2978-.6552.6552z"/><path d="m36.7142 17.5419c0-.3872-.3276-.7148-.7148-.7148-.3871 0-.7147.3276-.7147.7148s.3276.7148.7147.7148c.417 0 .7148-.3276.7148-.7148z"/><path d="m36.4764 19.5077c0-.4169-.3276-.7743-.7743-.7743-.417 0-.7744.3276-.7744.7743 0 .417.3574.7744.7744.7744.4467 0 .7743-.3574.7743-.7744z"/><path d="m35.9998 21.4433c0-.4468-.3574-.8339-.8041-.8339s-.8041.3574-.8041.8339c0 .4467.3574.8041.8041.8041.417 0 .8041-.3574.8041-.8041z"/><path d="m34.3612 22.3965c-.4765 0-.8636.3871-.8636.8637 0 .4765.3871.8637.8636.8637.4766 0 .8637-.3872.8637-.8637.0298-.4766-.3574-.8637-.8637-.8637z"/><path d="m7.73681 4.73534c.02978 0 .05956-.02979.05956-.05957s-.02978-.05956-.05956-.05956-.05956.02978-.05956.05956.02978.05957.05956.05957z"/><path d="m9.52391 3.87205c.05957 0 .11913-.05957.11913-.11913 0-.05957-.05956-.11913-.11913-.11913-.05956 0-.11912.05956-.11912.11913 0 .05956.05956.11913.11912.11913z"/><path d="m11.3701 3.18698c.0893 0 .1787-.05956.1787-.14891s-.0596-.17869-.1787-.17869c-.0893 0-.1489.08934-.1489.17869 0 .05956.0596.14891.1489.14891z"/><path d="m13.3059 2.70992c.1191 0 .2085-.08934.2085-.20847s-.0894-.20848-.2085-.20848c-.1192 0-.2085.08935-.2085.20848-.0298.08934.0893.20847.2085.20847z"/><path d="m15.2715 2.41205c.1489 0 .268-.11913.268-.26804s-.1191-.26803-.268-.26803c-.149 0-.2681.11912-.2681.26803s.1191.26804.2681.26804z"/><path d="m17.2671 2.35248c.1786 0 .3276-.14892.3276-.32761s-.149-.3276-.3276-.3276c-.1787 0-.3276.14891-.3276.3276s.1489.32761.3276.32761z"/><path d="m19.2622 2.50188c.2084 0 .3871-.1787.3871-.38718 0-.20847-.1787-.38716-.3871-.38716-.2085 0-.3872.17869-.3872.38716 0 .20848.1787.38718.3872.38718z"/><path d="m21.228 2.82901c.2382 0 .4467-.17869.4467-.44673 0-.23826-.2085-.44673-.4467-.44673-.2383 0-.4468.20847-.4468.44673.0298.26804.2085.44673.4468.44673z"/><path d="m23.1635 3.45497c.2681 0 .5063-.20846.5063-.4765s-.2085-.47652-.5063-.47652c-.268 0-.4765.20848-.4765.47652 0 .23826.2085.4765.4765.4765z"/><path d="m25.01 4.28895c.2978 0 .5361-.23826.5361-.53608s-.2383-.53607-.5361-.53607-.5361.23825-.5361.53607c-.0297.29782.2383.53608.5361.53608z"/><path d="m26.1118 4.76556c0 .32761.2681.59565.5957.59565s.5956-.26804.5956-.59565c0-.3276-.268-.59564-.5956-.59564s-.5957.26804-.5957.59564z"/><path d="m28.2861 6.67174c.3573 0 .6552-.29783.6552-.65521 0-.35739-.2979-.6552-.6552-.6552-.3574 0-.6552.29781-.6552.6552 0 .38717.2978.65521.6552.65521z"/><path d="m29.6562 8.19029c.3871 0 .7147-.32761.7147-.71478s-.3276-.71477-.7147-.71477c-.3872 0-.7148.3276-.7148.71477s.3276.71478.7148.71478z"/><path d="m30.8476 8.30957c-.417 0-.7744.32761-.7744.77434 0 .41695.3276.77432.7744.77432.4169 0 .7743-.32759.7743-.77432 0-.41695-.3574-.77434-.7743-.77434z"/><path d="m30.9966 10.811c0 .4467.3574.8041.8041.8041s.8041-.3574.8041-.8041c0-.4468-.3574-.8042-.8041-.8042-.417 0-.8041.3574-.8041.8042z"/><path d="m31.6816 12.6869c0 .4765.3872.8637.8637.8637s.8637-.3872.8637-.8637-.3872-.8637-.8637-.8637-.8637.3872-.8637.8637z"/><path d="m33.0214 13.7002c-.5063 0-.9233.4169-.9233.9232s.417.9233.9233.9233.9232-.417.9232-.9233c.0298-.5063-.3871-.9232-.9232-.9232z"/><path d="m.588858 18.2568c-.059564 0-.089346.0596-.089346.0894 0 .0595.059564.0893.089346.0893.059565 0 .089346-.0595.089346-.0893s-.029781-.0894-.089346-.0894z"/><path d="m1.18455 16.2607c-.11913 0-.208476.0894-.208476.2085s.089346.2085.208476.2085.20847-.0894.20847-.2085-.08934-.2085-.20847-.2085z"/><path d="m2.28656 14.623c0-.1787-.14891-.2978-.29782-.2978-.17869 0-.29782.1489-.29782.2978 0 .1787.14891.2978.29782.2978s.29782-.1191.29782-.2978z"/><path d="m2.94136 13.2821c.23826 0 .41695-.1787.41695-.4169 0-.2383-.17869-.417-.41695-.417-.23825 0-.41695.1787-.41695.417 0 .2382.20848.4169.41695.4169z"/><path d="m4.10298 11.7636c.29782 0 .50629-.2383.50629-.5063 0-.2681-.23826-.5063-.50629-.5063-.29783 0-.5063.2382-.5063.5063 0 .268.23826.5063.5063.5063z"/><path d="m5.4433 10.3641c.3276 0 .62542-.268.62542-.62539 0-.32761-.26804-.62543-.62542-.62543-.32761 0-.62543.26804-.62543.62543s.26804.62539.62543.62539z"/><path d="m6.90276 9.11313c.38717 0 .71477-.3276.71477-.71477 0-.38716-.3276-.71477-.71477-.71477s-.71477.32761-.71477.71477c0 .38717.3276.71477.71477.71477z"/><path d="m8.51114 8.04085c.44674 0 .8339-.35739.8339-.83391 0-.44673-.35738-.83389-.8339-.83389-.44673 0-.83389.35738-.83389.83389 0 .44673.38716.83391.83389.83391z"/><path d="m10.2382 7.14727c.5063 0 .9232-.41695.9232-.92324 0-.5063-.4169-.92325-.9232-.92325-.50631 0-.92326.41695-.92326.92325 0 .50629.41695.92324.92326.92324z"/><path d="m12.1145 6.49234c.5063 0 .9233-.38716 1.0126-.86368.2085.29782.5361.47652.9233.47652.4467 0 .8041-.23826 1.0126-.62543.2382.29782.5956.50629.9828.50629.3573 0 .685-.14891.9232-.41695.2383.32761.6254.56586 1.1019.56586.2681 0 .5361-.08934.7744-.23825.0595.08935.1191.14891.1787.20848-.3276.02978-.6552.17869-.8637.41695-.268-.23826-.5957-.38718-.953-.38718-.4765 0-.8935.23826-1.1615.59564-.2383-.17869-.5063-.29782-.8339-.29782-.5361 0-1.0126.32761-1.2211.77434-.2085-.14891-.4467-.20847-.7148-.20847-.5956 0-1.1019.41695-1.2508.98281-.1787-.11913-.3872-.1787-.6254-.1787-.6553 0-1.1913.53608-1.1913 1.19129-.1787-.08935-.35741-.14891-.56589-.14891-.62542 0-1.10194.50629-1.10194 1.10194 0 .11913.02979.20843.05957.29783-.14891-.0894-.32761-.1489-.53608-.1489-.56586 0-1.04237.4765-1.04237 1.0424 0 .5658.47651 1.0423 1.04237 1.0423s1.04237-.4765 1.04237-1.0423c0-.0894 0-.1787-.02978-.2681.17869.1191.38717.1787.59564.1787.59561 0 1.10191-.4765 1.10191-1.07215.1787.11915.417.17865.6255.17865h.0595c-.2382.2383-.4169.5361-.4467.8935-.0894 0-.1489-.0298-.2383-.0298-.7147 0-1.31038.5957-1.31038 1.3104v.1489c-.05956 0-.08935 0-.14891 0-.68499 0-1.25085.5659-1.25085 1.2509 0 .1489.02978.268.05956.3872-.02978 0-.05956 0-.05956 0-.65521 0-1.1615.536-1.1615 1.1615 0 .2382.05956.4467.17869.6254h-.02978c-.59564 0-1.10194.5063-1.10194 1.1019 0 .3276.14891.5957.35739.8041-.02979 0-.02979 0-.05957 0-.56586 0-1.04237.4766-1.04237 1.0424 0 .5659.47651 1.0424 1.04237 1.0424s1.04237-.4467 1.04237-1.0424c0-.2978-.11912-.5361-.29782-.7445h.05957c.3276 0 .59564-.149.80412-.3574v.0298c0 .2978.08934.536.23825.7445-.47651.1787-.80412.6254-.80412 1.1317 0 .3574.1787.685.41695.9233-.38716.1787-.68498.5956-.68498 1.0423 0 .4468.23825.834.62542 1.0126-.35738.1787-.59564.5361-.59564.9829 0 .5062.35738.953.86368 1.0721-.3276.1787-.56586.5063-.56586.9233 0 .5658.47651 1.0423 1.04237 1.0423.05957 0 .11913 0 .1787-.0298-.38717.1192-.68499.4766-.68499.9233 0 .5361.44673.9828.98281.9828s.98281-.4467.98281-.9828-.44673-.9828-.98281-.9828c-.05957 0-.11913 0-.1787.0298.41695-.1192.74456-.5063.74456-.9828 0-.0298 0-.0596 0-.0596.14891.1787.35738.2978.62546.3574-.17873.2084-.26808.4467-.26808.7445 0 .6255.50628 1.1317 1.16148 1.1317h.0298c-.1191.1787-.2085.3872-.2085.6255 0 .5956.4765 1.1019 1.102 1.1019.1191 0 .2084-.0298.3276-.0596-.1192.1787-.1787.3574-.1787.5659 0 .5659.4765 1.0424 1.0424 1.0424.2382 0 .4765-.0894.6552-.2383-.149.1787-.2383.3872-.2383.6254 0 .5361.4467.9829.9828.9829s.9828-.4468.9828-.9829c0-.268-.1191-.5063-.268-.6849.1191 0 .268-.0298.3871-.0596 0 .4765.2681.8637.6553 1.0721-.0596 0-.1192-.0297-.1787-.0297-.5063 0-.9233.4169-.9233.9232s.417.9233.9233.9233.9232-.417.9232-.9233c0-.3574-.2085-.6552-.4765-.8041.0893.0298.1787.0298.2978.0298.2383 0 .4467-.0596.6254-.1787.0596.5956.5361 1.0424 1.1318 1.0424.3276 0 .6254-.149.8339-.3574.0893.5063.536.9232 1.0721.9232.417 0 .7743-.2382.953-.5658.0894.4765.5063.8339 1.0126.8339.5361 0 .9828-.417 1.0126-.9233.0298.5063.4468.9233.9828.9233.5361 0 .9828-.4468.9828-.9829 0-.536-.4169-.953-.953-.9828.0894-.0893.1489-.2084.2085-.3276.2085.2383.5361.3574.8637.3574.1191 0 .2382-.0298.3574-.0596-.2383.1787-.417.4468-.417.7744 0 .5063.417.9232.9232.9232.5063 0 .9233-.4169.9233-.9232s-.417-.9233-.9233-.9233c-.0893 0-.1786.0298-.268.0298.2681-.1787.4765-.4467.5361-.7445.2085.1787.4467.268.7445.268.6255 0 1.1615-.5063 1.1615-1.1317v-.0298c.1787.1191.3872.2085.6255.2085.5956 0 1.1019-.4765 1.1019-1.102 0-.1191 0-.2084-.0596-.3276.1787.1192.3574.1787.5659.1787.5659 0 1.0424-.4765 1.0424-1.0423 0-.2383-.0894-.4765-.2383-.6552.1787.1489.3872.2382.6254.2382.5361 0 .9829-.4467.9829-.9828s-.4468-.9828-.9829-.9828c-.268 0-.5063.0893-.6849.268 0-.1191-.0298-.268-.0596-.3871.4765 0 .8637-.2681 1.0721-.6552 0 .0595-.0297.1191-.0297.1786 0 .5063.4169.9233.9232.9233s.9233-.417.9233-.9233c0-.5062-.417-.9232-.9233-.9232-.3574 0-.6552.2085-.8041.4765.0298-.0893.0298-.1787.0298-.2978 0-.2383-.0596-.4467-.1787-.6254.5956-.0596 1.0424-.5361 1.0424-1.1317 0-.3276-.149-.6255-.3574-.8339.5063-.0894.9232-.5361.9232-1.0722 0-.4169-.2382-.7743-.5658-.953.4765-.0894.8339-.5063.8339-1.0126 0-.5361-.417-.9828-.9233-1.0126.5063-.0298.9233-.4467.9233-.9828s-.4468-.9828-.9829-.9828c-.536 0-.9828.4467-.9828.9828 0 .5063.3872.9232.8637.9828-.5361.0298-.953.4765-.953 1.0424 0 .3871.2085.7147.5361.8934-.5063.0894-.8935.5361-.8935 1.0722 0 .2978.1191.5658.3276.7743-.5659.0894-.9828.5659-.9828 1.1317 0 .2085.0596.417.1489.5659-.6254.0298-1.1317.5659-1.1317 1.1913 0 .1191.0298.2382.0596.3574-.0298 0-.0298 0-.0596 0-.685 0-1.2509.5658-1.2509 1.2508v.0894c-.0595 0-.1191-.0298-.2084-.0298-.6552 0-1.1913.4765-1.2807 1.1317-.1191-.0298-.2382-.0596-.3573-.0596-.5361 0-1.0126.3276-1.2211.7744-.2681-.2085-.6254-.3276-.9828-.2383-.3872.0894-.7148.3276-.8637.685-.268-.268-.6552-.4169-1.0424-.3872-.3871.0596-.7148.2979-.8934.6255-.2085-.2681-.5659-.4468-.9233-.4468s-.6552.1489-.8935.3872c-.1489-.2978-.4169-.5659-.7445-.6552-.3574-.1191-.7446-.0298-1.0424.1787-.0893-.3574-.2978-.6552-.6552-.8339-.3276-.1489-.7148-.1489-1.0126 0 0-.3276-.1489-.685-.4467-.8935-.268-.2085-.6254-.2978-.953-.2382.0893-.3276 0-.685-.2085-.9829-.2383-.2978-.5956-.4765-.953-.4765.1489-.3276.1489-.7147-.0298-1.0423-.1489-.2979-.4467-.5063-.7446-.5957.2085-.2382.2979-.5956.2383-.9232-.0596-.3574-.2978-.685-.5957-.8637.2979-.2383.4766-.5659.4766-.9828 0-.3574-.149-.685-.417-.8935.2978-.1489.5361-.4169.6254-.7743.0894-.3574 0-.7148-.1787-.9828.3276-.0596.5957-.2681.7744-.5659.1787-.3276.2084-.685.0893-1.0126.3574.0298.7148-.1191.953-.3871.2383-.2681.3574-.6255.2979-.9828.3276.0893.685.0297.9828-.1787.2978-.2085.4765-.5361.5063-.8637.2978.1489.685.1787 1.0126.0595.3276-.1489.5658-.3871.6552-.6849.2382.2084.5658.3276.9232.2978.3872-.0298.7148-.2383.8935-.5659.2085.2978.5063.4765.8934.5063.3574.0298.685-.1191.9233-.3276.1191.3276.3872.5659.7445.685.3574.1191.7446.0596 1.0424-.1489.0596.3574.2681.6552.5957.8339.268.1489.5658.1787.8636.1191.0298.0596.0596.0894.0894.1191.0298.2681.1191.5063.2978.7148l.0298.0298c.6254.6552 2.0252 2.2039 1.7571 4.2886-.0595.5063.2383.7743.5957.3872 2.2634-2.4422 1.906-5.4204 1.8465-5.7777 0-.2383-.0596-.4468-.1489-.6553.0297-.1191.0297-.268.0297-.3871 0-.6254-.2978-1.1913-.7743-1.5487.0298-.1191.0298-.2382.0298-.3574 0-.7743-.4765-1.42952-1.1615-1.72734-.0298-.86368-.6552-1.57845-1.4891-1.72736-.1489-.77433-.8339-1.36997-1.6678-1.36997-.0298 0-.0596 0-.0894 0-.2084-.62543-.8041-1.10194-1.5189-1.10194-.1489 0-.268.02978-.3871.05956-.2383-.53608-.7744-.89346-1.37-.89346-.2383 0-.4765.05956-.6552.14891-.2383-.41695-.7148-.71477-1.2211-.71477-.3276 0-.6552.11913-.8934.29782-.2383-.3276-.6255-.56586-1.0722-.56586-.4169 0-.8041.20847-1.0424.50629-.2382-.26803-.5658-.44673-.953-.44673-.5063 0-.9232.29783-1.1317.71478-.2085-.23826-.5063-.38717-.8637-.38717-.5956 0-1.0721.44673-1.1317 1.01259-.1787-.23826-.4765-.41695-.8041-.41695-.5659 0-1.0126.44673-1.0126 1.01259-.1191.80412.3574 1.25085.9232 1.25085z"/><path d="m5.20507 33.0283c-.02978 0-.08935.0298-.08935.0894 0 .0297.02978.0893.08935.0893.05956 0 .08935-.0298.08935-.0893-.02979-.0596-.05957-.0894-.08935-.0894z"/><path d="m4.28221 31.1816c-.08935 0-.14891.0596-.14891.149 0 .0893.05956.1489.14891.1489s.14891-.0596.14891-.1489c0-.0894-.08934-.149-.14891-.149z"/><path d="m3.53708 29.2461c-.11912 0-.23825.1191-.23825.2383 0 .1191.11913.2382.23825.2382.11913 0 .23826-.1191.23826-.2382 0-.1192-.11913-.2383-.23826-.2383z"/><path d="m3.00094 27.251c-.17869 0-.3276.1489-.3276.3276s.14891.3276.3276.3276c.1787 0 .32761-.1489.32761-.3276-.02979-.2085-.1787-.3276-.32761-.3276z"/><path d="m3.06096 25.5825c0-.2085-.1787-.3872-.38717-.3872-.20848 0-.38717.1787-.38717.3872s.17869.3871.38717.3871c.20847 0 .38717-.1786.38717-.3871z"/><path d="m3.00137 23.5878c0-.268-.20848-.4765-.47652-.4765s-.47651.2085-.47651.4765c0 .2681.20847.4766.47651.4766s.47652-.2085.47652-.4766z"/><path d="m2.04834 21.5922c0 .2979.23826.5659.56586.5659.29782 0 .56586-.2383.56586-.5659 0-.2978-.23826-.5658-.56586-.5658-.29782 0-.56586.268-.56586.5658z"/><path d="m2.91205 20.2518c.35738 0 .62542-.2978.62542-.6254 0-.3574-.29782-.6254-.62542-.6254-.35739 0-.62543.2978-.62543.6254s.26804.6254.62543.6254z"/><path d="m3.47795 16.9756c-.38716 0-.71477.3276-.71477.7148 0 .3871.32761.7147.71477.7147.38717 0 .71477-.3276.71477-.7147 0-.3872-.3276-.7148-.71477-.7148z"/><path d="m4.25187 16.6483c.44673 0 .80412-.3574.80412-.8041 0-.4468-.35739-.8042-.80412-.8042s-.80412.3574-.80412.8042c.02979.4467.38717.8041.80412.8041z"/><path d="m5.29435 15.0106c.47651 0 .86368-.3872.86368-.8637s-.38717-.8637-.86368-.8637c-.47652 0-.86369.3872-.86369.8637s.38717.8637.86369.8637z"/><path d="m7.49834 12.5683c0-.5361-.41695-.9531-.95303-.9531s-.95302.417-.95302.9531c0 .536.41694.953.95302.953.5063 0 .95303-.417.95303-.953z"/><path d="m56.5788 27.8163c-1.0424 0-2.0252-.2085-2.9484-.5956-.9233-.3872-1.7274-.9531-2.4124-1.638-.6849-.685-1.221-1.4892-1.6082-2.4124s-.5956-1.9061-.5956-2.9484c0-1.0424.2084-2.055.5956-2.9782.3872-.9233.9233-1.7274 1.6082-2.4124.685-.685 1.4891-1.2508 2.4124-1.638.9232-.417 1.906-.5956 2.9484-.5956s2.055.2084 2.9782.6254c.9233.4169 1.7274.9828 2.4422 1.6976.1489.1489.268.3276.3276.5658.0893.2681.0595.5063-.0894.7446-.1787.268-.4169.3871-.7445.4169-.3574 0-.5957-.0893-.8042-.2978-.5063-.4467-1.1615-.8637-1.8762-1.2508-.685-.3574-1.4593-.5361-2.2337-.5361-.7743 0-1.5189.1489-2.2039.4467s-1.2806.7148-1.7869 1.2211c-.5063.5361-.8935 1.1317-1.1913 1.8167s-.4467 1.4295-.4467 2.2039c0 .7743.1489 1.5188.4467 2.2038s.685 1.2807 1.1913 1.787 1.1019.9232 1.7869 1.221 1.4296.4468 2.2039.4468c.8041 0 1.5785-.149 2.2932-.4766.7148-.2978 1.3104-.7445 1.8465-1.3104.1489-.1787.3574-.2978.5957-.3574.0893-.0297.1489-.0297.2382-.0297.1787 0 .3574.0595.5063.1489.2383.2084.3574.4765.3574.7743s-.0893.5659-.268.7743c-.685.7744-1.5189 1.37-2.4719 1.787-.9531.3574-1.9954.5956-3.0974.5956z"/><path d="m72.4235 27.787c-1.0423 0-2.0251-.2085-2.9484-.5956-.9232-.3872-1.7273-.9531-2.4123-1.6083-.685-.6849-1.2211-1.4891-1.6083-2.4123-.3871-.9233-.5956-1.9061-.5956-2.9484 0-1.0424.2085-2.0252.5956-2.9485.3872-.9232.9531-1.7273 1.6083-2.4123.685-.685 1.4891-1.2211 2.4123-1.638.9233-.3872 1.9061-.5957 2.9484-.5957 1.0424 0 2.0252.2085 2.9485.5957.9232.3871 1.7273.953 2.4123 1.638s1.2211 1.4891 1.638 2.4123c.3872.9233.5957 1.9061.5957 2.9485 0 1.0423-.2085 2.0251-.5957 2.9484-.3871.9232-.953 1.7274-1.638 2.4123-.685.685-1.4891 1.2211-2.4123 1.6083-.9233.3871-1.9061.5956-2.9485.5956zm0-13.2232c-.7743 0-1.5188.1489-2.2038.4467s-1.2807.685-1.787 1.1913-.9232 1.1317-1.1912 1.8167c-.2979.685-.4468 1.4295-.4468 2.2039 0 .7743.1489 1.5189.4468 2.2038.2978.685.6849 1.2807 1.1912 1.787s1.102.8934 1.787 1.1912c.685.2979 1.4295.4468 2.2038.4468.7744 0 1.5189-.1489 2.2039-.4468.685-.2978 1.2807-.6849 1.7869-1.1912.5063-.5063.9233-1.102 1.2211-1.787.2978-.6849.4467-1.4295.4467-2.2038 0-.7744-.1489-1.5189-.4467-2.2039s-.685-1.2806-1.2211-1.8167c-.5062-.5063-1.1019-.9233-1.7869-1.1913-.685-.2978-1.4295-.4467-2.2039-.4467z"/><path d="m93.4198 27.8163c-.268 0-.5062-.0893-.6849-.2978-.1787-.1787-.2979-.417-.2979-.685v-8.6666c0-.5063-.0893-.953-.2978-1.3998-.1787-.4467-.4467-.8338-.8041-1.1615-.3276-.3276-.7446-.5956-1.1615-.8041-.4467-.1787-.9232-.2978-1.3998-.2978-.5063 0-.9828.0894-1.3997.2978-.4467.1787-.8339.4468-1.1615.8041-.3276.3277-.5957.7446-.7744 1.1615-.1786.4468-.2978.9233-.2978 1.3998v8.6666c0 .268-.0893.5063-.2978.685-.1787.1787-.4169.268-.685.268-.268 0-.5063-.0893-.685-.2978-.1787-.1787-.2978-.4169-.2978-.685v-8.6666c0-.7743.1489-1.4891.4467-2.1741.2979-.685.685-1.2806 1.1913-1.7869s1.102-.9232 1.7869-1.1913c.685-.2978 1.3998-.4467 2.1741-.4467.7744 0 1.4891.1489 2.1741.4467s1.2807.685 1.787 1.1913.9232 1.1019 1.1912 1.7869c.2979.685.4468 1.4296.4468 2.1741v8.6666c0 .2681-.0894.5063-.2681.685-.1787.2383-.4169.3276-.685.3276z"/><path d="m103.009 27.8163c-.744 0-1.459-.1191-2.114-.3574-.656-.2382-1.2512-.5658-1.7277-1.0126-.5063-.4169-.8934-.9232-1.1913-1.4891-.2978-.5658-.4169-1.1913-.4169-1.8465 0-.2382.0893-.4765.268-.6552s.417-.268.6552-.268c.2681 0 .4765.0893.6552.268s.2681.3872.2681.6552c0 .3872.0893.7446.268 1.0722s.4174.6254.7444.8934c.328.2383.685.4468 1.132.5957s.923.2382 1.429.2382c.507 0 .983-.0893 1.43-.2382s.834-.3574 1.161-.6254c.328-.2383.596-.5361.775-.8935.178-.3276.238-.685.238-1.0722-.03-.3573-.149-.6849-.328-.9828-.208-.3276-.446-.5956-.774-.8636-.298-.2383-.685-.4468-1.102-.6255s-.834-.2978-1.31-.3574c-.655-.0297-1.281-.1787-1.906-.3871-.596-.2085-1.162-.4765-1.6085-.8041-.4765-.3276-.8637-.7148-1.1317-1.1615-.2979-.4468-.4468-.9828-.4468-1.5189 0-.5659.1489-1.0722.417-1.5487.268-.4765.6552-.8935 1.1019-1.2211.4467-.3574 1.0131-.6254 1.6381-.8339.625-.2084 1.281-.2978 1.966-.2978s1.37.0894 1.965.2978c.626.2085 1.162.4765 1.638.8339.477.3574.834.7744 1.102 1.2211.268.4765.417.9828.417 1.5487 0 .268-.089.5063-.298.685-.178.1786-.417.2978-.685.2978s-.506-.0894-.685-.2978c-.178-.1787-.268-.4468-.298-.7446 0-.2383-.089-.4467-.238-.6552-.178-.2383-.387-.417-.685-.5956-.298-.1787-.625-.3277-1.012-.4468-.388-.1191-.804-.1489-1.251-.1489s-.864.0596-1.281.1489c-.387.1191-.744.2383-1.012.4468-.268.1786-.507.3871-.656.6552-.1486.2382-.2379.4765-.2379.7147 0 .2383.0893.4468.2679.6552.209.2383.477.417.774.5957.328.1787.685.3276 1.073.4467.387.1191.744.2085 1.072.2383.715.0893 1.4.2382 2.055.5063.655.268 1.221.5956 1.697.9828.477.4169.864.8934 1.162 1.4295.268.5361.417 1.1615.417 1.7869 0 .6553-.149 1.2807-.417 1.8465-.268.5659-.685 1.0722-1.191 1.4891-.507.417-1.073.7446-1.728.9829-.595.2978-1.31.4169-2.055.4169z"/><path d="m112.837 27.8163c-.268 0-.506-.0893-.685-.2978-.178-.1787-.298-.417-.298-.685v-13.3126c0-.268.09-.5063.298-.685.179-.1787.417-.2978.685-.2978h8.131c.268 0 .506.0893.685.2978.178.1787.268.417.268.685s-.09.5063-.268.685c-.179.1787-.417.2978-.685.2978h-7.148v4.6758h5.063c.268 0 .506.0893.685.2978.179.1787.298.417.298.685s-.089.5063-.298.685c-.179.1787-.417.268-.685.268h-5.063v4.7652h7.148c.268 0 .506.0893.685.2978.178.1787.268.4169.268.685 0 .268-.09.5063-.268.685-.179.1787-.417.2978-.685.2978h-8.131z"/><path d="m134.787 27.8163c-.268 0-.507-.0893-.685-.268-.179-.1787-.298-.417-.298-.685v-8.6666c0-.5063-.09-.953-.298-1.3998-.179-.4467-.447-.8339-.804-1.1615-.328-.3276-.745-.5956-1.162-.8041-.446-.1787-.923-.2978-1.399-.2978-.507 0-.983.0893-1.4.2978-.447.1787-.834.4467-1.162.8041-.327.3276-.595.7446-.774 1.1615-.179.4468-.298.9233-.298 1.3998v8.6666c0 .268-.089.5063-.298.685-.178.1787-.417.268-.685.268s-.506-.0893-.685-.268c-.178-.1787-.268-.417-.268-.685v-8.6666c0-.7743.149-1.4891.447-2.1741s.685-1.2806 1.191-1.7869c.507-.5063 1.102-.9233 1.787-1.1913.685-.2978 1.43-.4467 2.174-.4467.775 0 1.489.1489 2.174.4467.656.2978 1.281.685 1.787 1.1913.507.5063.924 1.1019 1.192 1.7869.297.685.446 1.4295.446 2.1741v8.6666c0 .268-.089.5063-.268.685-.208.1787-.446.268-.714.268z"/><path d="m144.377 27.8168c-.745 0-1.459-.1191-2.115-.3574-.655-.2383-1.25-.5659-1.727-1.0126-.506-.4169-.893-.9232-1.191-1.4891s-.417-1.1913-.417-1.8465c0-.2382.089-.4765.268-.6552.178-.1787.417-.268.655-.268.268 0 .477.0893.655.268.179.1787.268.417.268.6552 0 .3872.09.7446.268 1.0722.179.3276.417.6552.745.8934.327.2681.715.4468 1.132.6255.446.1489.923.2382 1.429.2382s.983-.0893 1.43-.2382c.446-.149.834-.3574 1.161-.6255.328-.2382.596-.5658.774-.8934.179-.3276.239-.685.209-1.0722-.03-.3574-.149-.685-.328-.9828-.208-.3276-.446-.5956-.774-.8637-.298-.2382-.685-.4467-1.102-.6254s-.834-.2978-1.31-.3574c-.656-.0298-1.281-.1787-1.877-.3872-.595-.2084-1.161-.4765-1.608-.8041-.476-.3276-.864-.7147-1.132-1.1615-.297-.4467-.446-.9828-.446-1.5189 0-.536.149-1.0721.417-1.5486s.655-.8935 1.131-1.2211c.477-.3574 1.013-.6254 1.609-.8339.625-.2085 1.28-.2978 1.965-.2978s1.37.0893 1.966.2978c.625.2085 1.161.4765 1.638.8339.476.3574.834.7743 1.102 1.2211.268.4765.417 1.0126.417 1.5486 0 .2681-.09.5063-.298.685-.179.1787-.417.2979-.685.2979s-.506-.0894-.685-.2979c-.179-.1787-.268-.4467-.268-.7445 0-.2383-.089-.4468-.238-.6552-.149-.2383-.388-.417-.685-.5957-.298-.1787-.626-.3276-1.013-.4467s-.804-.1489-1.251-.1489-.863.0595-1.28.1489c-.388.1191-.745.2383-1.013.4467-.268.1787-.506.3872-.655.6552-.149.2383-.238.4765-.238.7148s.089.4467.268.6552c.208.2383.476.417.774.5957.328.1786.685.3276 1.072.4467.357.1191.745.2085 1.072.2382.715.0894 1.4.2383 2.055.5063.655.2681 1.221.5957 1.698.9828.476.417.863.8935 1.131 1.4296.269.5361.417 1.1615.417 1.7869 0 .6552-.148 1.2806-.417 1.8465-.268.5659-.685 1.0722-1.191 1.4891-.506.417-1.072.7446-1.727.9828-.596.2681-1.311.3872-2.055.3872z"/><path d="m159.059 27.8168c-.268 0-.506-.0893-.685-.268s-.298-.417-.298-.685v-4.9736l-6.016-7.7434c-.149-.2085-.238-.4467-.208-.7148.03-.268.149-.4765.357-.6552.179-.1489.387-.2084.626-.2084.327.0297.566.1489.744.3573l5.51 7.0584 5.599-7.0584c.179-.2084.387-.3276.655-.3573h.03c.298 0 .506.0595.685.2084.208.1787.328.3872.357.6552.03.2681-.059.5063-.208.7148l-6.105 7.7434v4.9736c0 .268-.09.5063-.269.685-.268.1787-.506.268-.774.268z"/><path d="m173.712 27.8163c-.745 0-1.459-.1191-2.115-.3574-.655-.2382-1.251-.5658-1.727-1.0126-.506-.4169-.894-.9232-1.191-1.4891-.298-.5658-.417-1.1913-.417-1.8465 0-.2382.089-.4765.268-.6552.178-.1787.417-.268.655-.268s.476.0893.655.268.268.417.268.6552c0 .3872.09.7446.268 1.0722.179.3276.417.6254.745.8934.327.2383.715.4468 1.132.5957.446.1489.923.2382 1.429.2382s.983-.0893 1.43-.2382c.446-.1489.834-.3574 1.161-.6254.328-.2383.596-.5659.774-.8935.179-.3276.239-.685.209-1.0722-.03-.3573-.149-.6849-.328-.9828-.208-.3276-.446-.5956-.774-.8636-.298-.2383-.685-.4468-1.102-.6255s-.834-.2978-1.31-.3574c-.656-.0297-1.281-.1787-1.906-.3871-.596-.2085-1.162-.4765-1.609-.8041-.476-.3276-.863-.7148-1.131-1.1615-.298-.4468-.447-.9828-.447-1.5189s.149-1.0722.417-1.5487.655-.8935 1.132-1.2211c.446-.3574 1.012-.6254 1.608-.8339.625-.2084 1.28-.2978 1.965-.2978s1.37.0894 1.966.2978c.625.2085 1.162.4765 1.608.8339.477.3574.834.7446 1.132 1.2211.268.4765.417 1.0126.417 1.5487 0 .268-.089.5063-.298.685-.179.1786-.417.2978-.685.2978s-.506-.0894-.685-.2978c-.179-.1787-.268-.4468-.298-.7446 0-.2383-.089-.4467-.238-.6552-.179-.2383-.387-.417-.685-.5956-.298-.1787-.625-.3277-1.013-.4468-.387-.1191-.804-.1489-1.25-.1489-.447 0-.864.0596-1.281.1489-.387.1191-.745.2383-1.013.4468-.268.1786-.506.3871-.655.6552-.149.2382-.238.4765-.238.7147 0 .2383.089.4468.268.6552.208.2383.476.417.774.5957.328.1787.685.3276 1.072.4467.388.1191.745.2085 1.073.2383.714.0893 1.399.2382 2.055.5063.655.268 1.221.5956 1.697.9828.477.4169.864.8934 1.132 1.4295s.417 1.1317.417 1.7869c0 .6553-.149 1.2807-.417 1.8465-.268.5659-.685 1.0722-1.191 1.4891-.507.417-1.073.7446-1.728.9829-.536.2978-1.251.4169-1.995.4169z"/></g></svg>