<svg alt="adonis logo" width="100%" height="100%" viewBox="0 0 108 33" fill="none" xmlns="http://www.w3.org/2000/svg">
<path d="M46.616 16.5868C46.616 17.7628 45.464 18.0028 43.568 18.3628C40.496 18.9628 38.504 19.8028 38.504 22.4908C38.504 24.5548 40.04 25.9948 42.536 25.9948C44.432 25.9948 45.824 25.2508 46.592 24.1708H46.64C46.88 25.3708 47.504 25.8508 48.848 25.8508C49.328 25.8508 49.736 25.8028 50.312 25.5868V24.3868C49.328 24.4828 49.136 24.0268 49.136 23.1628V17.3308C49.136 14.0668 47.12 13.0348 44.408 13.0348C40.712 13.0348 39.2 14.8828 39.08 17.2348H41.528C41.648 15.6508 42.392 15.0268 44.408 15.0268C46.088 15.0268 46.616 15.6988 46.616 16.5868ZM43.088 24.0028C41.72 24.0028 41.048 23.3788 41.048 22.2508C41.048 21.0028 41.96 20.4028 44.048 19.9468C45.224 19.7068 46.208 19.4188 46.616 19.1308V20.9788C46.616 22.9708 45.176 24.0028 43.088 24.0028ZM60.4019 8.47476V14.8588H60.3539C59.7059 13.9228 58.5059 13.0348 56.6099 13.0348C53.4659 13.0348 51.1379 15.4828 51.1379 19.5148C51.1379 23.5468 53.4659 25.9948 56.6099 25.9948C58.5059 25.9948 59.7059 25.0588 60.3539 24.2188H60.4019V25.6348H62.9219V8.47476H60.4019ZM57.0419 23.9308C54.8339 23.9308 53.6579 21.9148 53.6579 19.5148C53.6579 17.1148 54.8339 15.0988 57.0419 15.0988C59.1059 15.0988 60.3779 16.7788 60.3779 19.5148C60.3779 22.2268 59.1059 23.9308 57.0419 23.9308ZM70.8528 25.9948C67.0128 25.9948 64.6848 23.3308 64.6848 19.5148C64.6848 15.6988 67.0128 13.0348 70.8528 13.0348C74.6928 13.0348 77.0208 15.6988 77.0208 19.5148C77.0208 23.3308 74.6928 25.9948 70.8528 25.9948ZM70.8528 23.9308C73.2528 23.9308 74.5008 22.0348 74.5008 19.5148C74.5008 16.9708 73.2528 15.0988 70.8528 15.0988C68.4528 15.0988 67.2048 16.9708 67.2048 19.5148C67.2048 22.0348 68.4528 23.9308 70.8528 23.9308ZM85.3625 13.0348C83.2505 13.0348 81.9785 13.9948 81.3305 14.9548H81.2825V13.3708H78.7625V25.6348H81.2825V18.1708C81.2825 16.3468 82.5305 15.1708 84.4745 15.1708C86.2025 15.1708 86.8985 16.2268 86.8985 17.8828V25.6348H89.4425V17.1628C89.4425 14.3548 87.6425 13.0348 85.3625 13.0348ZM93.1629 11.3068C93.9069 11.3068 94.6029 10.8268 94.6029 9.96276C94.6029 9.09877 93.9069 8.64277 93.1629 8.64277C92.4669 8.64277 91.7469 9.09877 91.7469 9.96276C91.7469 10.8268 92.4669 11.3068 93.1629 11.3068ZM91.9149 13.3708V25.6348H94.4349V13.3708H91.9149ZM102.301 18.2188C100.525 17.8108 99.1569 17.7148 99.1569 16.4668C99.1569 15.6028 99.9729 15.0268 101.485 15.0268C103.453 15.0268 103.933 16.0108 104.101 16.9708H106.549C106.381 14.8348 104.797 13.0348 101.461 13.0348C98.3889 13.0348 96.6129 14.6428 96.6129 16.6588C96.6129 19.4428 99.2529 19.8268 101.197 20.2828C102.997 20.7148 104.461 20.8348 104.461 22.3708C104.461 23.1388 103.717 24.0028 101.965 24.0028C99.3729 24.0028 98.7969 22.8748 98.6769 21.5548H96.2289C96.3489 24.1468 98.0529 25.9948 102.013 25.9948C104.989 25.9948 107.005 24.5308 107.005 22.1788C107.005 19.2508 104.557 18.7468 102.301 18.2188Z" fill="white"></path>
<path d="M18.4987 16.5971C18.4987 12.7519 15.0001 9.63477 15.0001 9.63477C15.0001 9.63477 11.5015 12.7519 11.5015 16.5971C11.5015 20.4423 15.0001 23.5594 15.0001 23.5594C15.0001 23.5594 18.4987 20.4423 18.4987 16.5971Z" fill="white"></path>
<path d="M7.92124 18.7006C11.3299 20.6232 12.3438 25.1417 12.3438 25.1417C12.3438 25.1417 7.83132 26.5431 4.42265 24.6205C1.01398 22.6979 0 18.1794 0 18.1794C0 18.1794 4.51257 16.778 7.92124 18.7006Z" fill="white"></path>
<path d="M22.0788 18.7006C18.6701 20.6232 17.6562 25.1417 17.6562 25.1417C17.6562 25.1417 22.1687 26.5431 25.5774 24.6205C28.986 22.6979 30 18.1794 30 18.1794C30 18.1794 25.4874 16.778 22.0788 18.7006Z" fill="white"></path>
</svg>
