<svg width="21" height="20" viewBox="0 0 21 20" fill="none" xmlns="http://www.w3.org/2000/svg">
<g id="Group 13138">
<path id="Vector" d="M0.5 10C0.5 11.3132 0.758658 12.6136 1.2612 13.8268C1.76375 15.0401 2.50035 16.1425 3.42893 17.0711C4.35752 17.9997 5.45991 18.7362 6.67317 19.2388C7.88642 19.7413 9.18678 20 10.5 20C11.8132 20 13.1136 19.7413 14.3268 19.2388C15.5401 18.7362 16.6425 17.9997 17.5711 17.0711C18.4997 16.1425 19.2362 15.0401 19.7388 13.8268C20.2413 12.6136 20.5 11.3132 20.5 10C20.5 8.68678 20.2413 7.38642 19.7388 6.17317C19.2362 4.95991 18.4997 3.85752 17.5711 2.92893C16.6425 2.00035 15.5401 1.26375 14.3268 0.761205C13.1136 0.258658 11.8132 0 10.5 0C9.18678 0 7.88642 0.258658 6.67317 0.761205C5.45991 1.26375 4.35752 2.00035 3.42893 2.92893C2.50035 3.85752 1.76375 4.95991 1.2612 6.17317C0.758658 7.38642 0.5 8.68678 0.5 10Z" fill="#734F6B"/>
<path id="Vector_2" d="M7.5 10.1429L9.5 12.2857L13.5 8" stroke="#FCE7F3" stroke-width="2" stroke-linecap="round" stroke-linejoin="round"/>
</g>
</svg>
