<svg width="346" height="292" viewBox="0 0 346 292" fill="none" xmlns="http://www.w3.org/2000/svg">
<path d="M167.744 2.56105C171.062 0.94452 174.938 0.94452 178.256 2.56105L316.079 69.7141C320.205 71.7245 322.822 75.9121 322.822 80.5017V211.498C322.822 216.088 320.204 220.276 316.079 222.286L178.256 289.439C174.938 291.055 171.062 291.055 167.744 289.439L29.9214 222.286C25.7955 220.276 23.1776 216.088 23.1776 211.498V80.5017C23.1776 75.9121 25.7955 71.7245 29.9214 69.7141L167.744 2.56105Z" fill="#F5F4F5"/>
<path d="M167.74 23.5647C171.06 21.946 174.94 21.946 178.26 23.5647L294.431 80.2132C298.555 82.2242 301.172 86.4109 301.172 90.9991V201.001C301.172 205.589 298.555 209.776 294.431 211.787L178.26 268.435C174.94 270.054 171.06 270.054 167.74 268.435L51.5687 211.787C47.4446 209.776 44.8282 205.589 44.8282 201.001V90.9991C44.8282 86.4109 47.4446 82.2242 51.5687 80.2132L167.74 23.5647Z" fill="white"/>
<path d="M83.752 149V116.168L75.048 121.544V110.6L85.544 103.24H96.872V149H83.752ZM124.981 149.768C112.181 149.768 104.117 141.512 104.117 127.112V125.192C104.117 110.728 113.141 102.6 125.237 102.6C137.269 102.6 146.357 110.088 146.357 124.936V126.728C146.357 141.256 138.037 149.768 124.981 149.768ZM125.365 139.592C130.997 139.592 133.237 135.432 133.237 126.984V125.128C133.237 116.744 130.805 112.52 125.237 112.52C119.733 112.52 117.237 116.68 117.237 125.128V127.048C117.237 135.56 119.733 139.592 125.365 139.592Z" fill="#EC2E3A"/>
<path d="M165.744 134.288C160.2 134.288 156.744 130.688 156.744 125.528V125.336C156.744 120.104 160.68 116.6 165.816 116.6C171.048 116.6 174.912 119.888 174.912 125.216V125.408C174.912 130.688 171.288 134.288 165.744 134.288ZM165.84 130.424C168.264 130.424 169.776 128.552 169.776 125.48V125.288C169.776 122.24 168.24 120.44 165.816 120.44C163.392 120.44 161.88 122.192 161.88 125.312V125.504C161.88 128.624 163.464 130.424 165.84 130.424ZM177.32 134V116.84H188.912V120.656H182.264V124.304H187.568V127.928H182.264V134H177.32Z" fill="#535353"/>
<path d="M81.752 189V171.84H86.72V189H81.752ZM90.0935 189V171.84H95.6375L101.134 181.512V171.84H105.43V189H100.678L94.4135 178.224V189H90.0935Z" fill="#535353"/>
<path d="M207.752 149V116.168L199.048 121.544V110.6L209.544 103.24H220.872V149H207.752ZM248.981 149.768C236.181 149.768 228.117 141.512 228.117 127.112V125.192C228.117 110.728 237.141 102.6 249.237 102.6C261.269 102.6 270.357 110.088 270.357 124.936V126.728C270.357 141.256 262.037 149.768 248.981 149.768ZM249.365 139.592C254.997 139.592 257.237 135.432 257.237 126.984V125.128C257.237 116.744 254.805 112.52 249.237 112.52C243.733 112.52 241.237 116.68 241.237 125.128V127.048C241.237 135.56 243.733 139.592 249.365 139.592Z" fill="#EC2E3A"/>
<path d="M123.456 201V199.347L137.706 184.242C141.753 179.91 144.432 176.433 144.432 173.013C144.432 170.277 143.007 168.453 140.1 168.453C137.193 168.453 135.369 170.22 134.856 175.065H124.254C124.653 164.862 130.809 159.675 140.67 159.675C150.645 159.675 155.946 165.033 155.946 172.557C155.946 178.143 152.811 182.361 148.251 186.75L142.551 192.279H156.231V201H123.456ZM178.424 201.684C167.024 201.684 159.842 194.331 159.842 181.506V179.796C159.842 166.914 167.879 159.675 178.652 159.675C189.368 159.675 197.462 166.344 197.462 179.568V181.164C197.462 194.103 190.052 201.684 178.424 201.684ZM178.766 192.621C183.782 192.621 185.777 188.916 185.777 181.392V179.739C185.777 172.272 183.611 168.51 178.652 168.51C173.75 168.51 171.527 172.215 171.527 179.739V181.449C171.527 189.03 173.75 192.621 178.766 192.621ZM199.994 201V199.347L214.244 184.242C218.291 179.91 220.97 176.433 220.97 173.013C220.97 170.277 219.545 168.453 216.638 168.453C213.731 168.453 211.907 170.22 211.394 175.065H200.792C201.191 164.862 207.347 159.675 217.208 159.675C227.183 159.675 232.484 165.033 232.484 172.557C232.484 178.143 229.349 182.361 224.789 186.75L219.089 192.279H232.769V201H199.994ZM252.105 201.684C241.275 201.684 236.373 195.813 236.088 188.175H246.69C247.089 191.025 248.229 192.906 251.991 192.906C255.354 192.906 256.893 190.398 256.893 187.149C256.893 183.501 254.898 181.335 251.364 181.335C248.058 181.335 246.006 182.646 244.638 184.242H237.684L238.539 160.245H266.013V168.795H246.975L246.747 177.801C248.286 175.578 251.193 173.469 256.266 173.469C263.733 173.469 268.635 178.485 268.635 187.32C268.635 195.984 262.422 201.684 252.105 201.684Z" fill="black"/>
<rect x="156" y="105" width="34" height="4" fill="#FACCDE"/>
<rect x="77" y="160" width="34" height="4" fill="#FACCDE"/>
<rect x="156" y="144" width="34" height="4" fill="#FACCDE"/>
<rect x="77" y="197" width="34" height="4" fill="#FACCDE"/>
<path d="M234.955 83C236.085 83 237 82.1242 237 81.0438C237 79.9634 236.085 79.0875 234.955 79.0875C233.826 79.0875 232.91 79.9634 232.91 81.0438C232.91 82.1242 233.826 83 234.955 83Z" fill="#EC2E3A"/>
<path d="M234.955 75.0076C236.085 75.0076 237 74.1317 237 73.0513C237 71.9709 236.085 71.0951 234.955 71.0951C233.826 71.0951 232.91 71.9709 232.91 73.0513C232.91 74.1317 233.826 75.0076 234.955 75.0076Z" fill="#EC2E3A"/>
<path d="M152.918 80.4653V82.8555H143.785V80.4653H146.824V69.3977H143.785V67H149.903V80.4653H152.918Z" fill="black"/>
<path d="M163.874 80.4653V82.8555H154.74V80.4653H157.78V69.3977H154.74V67H160.859V80.4653H163.874Z" fill="black"/>
<path d="M167.55 82.8555V73.6223H164.638V71.2322H167.55V70.2883C167.55 68.157 168.712 67 171.114 67H174.575V69.3521H171.631C170.892 69.3521 170.573 69.6641 170.573 70.3644V71.2246H174.575V73.6147H170.613V82.8478H167.55V82.8555Z" fill="black"/>
<path d="M181.728 71.0951C178.028 71.0951 175.53 73.4852 175.53 77.0475C175.53 80.6099 178.028 83 181.728 83C185.428 83 187.95 80.6175 187.95 77.0475C187.95 73.4776 185.452 71.0951 181.728 71.0951ZM181.728 80.5794C179.866 80.5794 178.657 79.1027 178.657 77.0475C178.657 74.9923 179.866 73.5157 181.728 73.5157C183.59 73.5157 184.823 74.9847 184.823 77.0475C184.823 79.1104 183.606 80.5794 181.728 80.5794Z" fill="black"/>
<path d="M198.229 71.2322H201.292V82.8555H198.309V81.4397C197.537 82.3151 196.479 82.9925 194.768 82.9925C192.302 82.9925 190.066 81.7746 190.066 77.8013V71.2322H193.129V77.5653C193.129 79.4987 193.869 80.572 195.54 80.572C197.211 80.572 198.237 79.3997 198.237 77.2913V71.2322H198.229Z" fill="black"/>
<path d="M226.88 67V72.6328C226.108 71.727 224.922 71.0876 223.26 71.0876C220.053 71.0876 217.587 73.432 217.587 77.0172C217.587 80.6024 219.958 82.9849 223.196 82.9849C224.97 82.9849 226.156 82.1856 226.943 81.1732V82.8478H229.927V67H226.872H226.88ZM223.832 80.5795C221.939 80.5795 220.722 79.1257 220.722 77.0476C220.722 74.9696 221.939 73.5157 223.832 73.5157C225.726 73.5157 226.927 74.9772 226.927 77.0781C226.927 79.1789 225.71 80.5871 223.832 80.5871V80.5795Z" fill="black"/>
<path d="M112.771 82.8555L109 71.2322H112.509L114.736 79.59L117.155 71.2322H120.68L123.098 79.59L125.326 71.2322H128.835L125.016 82.8631H121.276L118.913 74.4673L116.503 82.8631H112.771V82.8555Z" fill="black"/>
<path d="M141.963 77.7252C142.018 77.3674 142.042 76.9411 142.042 76.6671C142.01 73.2494 139.608 71.0876 136.067 71.0876C132.527 71.0876 129.996 73.4549 129.996 77.0629C129.996 80.6709 132.383 82.9926 136.29 82.9926C139.433 82.9926 141.485 81.2038 141.875 78.9278H138.852C138.541 80.1001 137.563 80.7242 136.17 80.7242C134.42 80.7242 133.258 79.6205 133.187 77.8546V77.7252H141.963ZM136.091 73.3255C137.619 73.3255 138.685 74.1552 138.939 75.6395H133.282C133.505 74.2085 134.651 73.3255 136.091 73.3255Z" fill="black"/>
<path d="M207.315 82.8554H204.252V71.2321H207.236V72.6479C208.007 71.7725 209.066 71.0951 210.776 71.0951C213.243 71.0951 215.478 72.313 215.478 76.2864V82.8554H212.415V76.5223C212.415 74.5889 211.675 73.5157 210.004 73.5157C208.334 73.5157 207.307 74.6879 207.307 76.7964V82.863L207.315 82.8554Z" fill="black"/>
</svg>
